<svg viewBox="0 0 163.821 41.861" xml:space="preserve" xmlns="http://www.w3.org/2000/svg"><defs><linearGradient id="a" x1="11.67" y1="73.36" x2="70.61" y2="44.72" gradientTransform="matrix(.5962 0 0 -.5962 -381.639 -244.39)" gradientUnits="userSpaceOnUse"><stop offset=".1" stop-color="#76b3e1"/><stop offset=".3" stop-color="#dcf2fd"/><stop offset="1" stop-color="#76b3e1"/></linearGradient><linearGradient id="b" x1="44" y1="59.33" x2="33.68" y2="24.96" gradientTransform="matrix(.5962 0 0 -.5962 -381.639 -244.39)" gradientUnits="userSpaceOnUse"><stop offset="0" stop-color="#76b3e1"/><stop offset=".5" stop-color="#4377bb"/><stop offset="1" stop-color="#1f3b77"/></linearGradient><linearGradient id="c" x1="7.34" y1="44.34" x2="66.94" y2="3.82" gradientTransform="matrix(.5962 0 0 -.5962 -381.639 -244.39)" gradientUnits="userSpaceOnUse"><stop offset="0" stop-color="#315aa9"/><stop offset=".5" stop-color="#518ac8"/><stop offset="1" stop-color="#315aa9"/></linearGradient><linearGradient id="d" x1="34.25" y1="39.49" x2="10.2" y2="-48.7" gradientTransform="matrix(.5962 0 0 -.5962 -381.639 -244.39)" gradientUnits="userSpaceOnUse"><stop offset="0" stop-color="#4377bb"/><stop offset=".5" stop-color="#1a336b"/><stop offset="1" stop-color="#1a336b"/></linearGradient></defs><path d="M44.877 9.006S30-2.226 18.459.397l-1.014.28a7.363 7.363 0 0 0-3.923 2.755 6.666 6.666 0 0 0-.423.703L8.836 11.38l7.363 1.437a13.117 13.117 0 0 0 10.5 2.063l13.116 2.564z" fill="#76b3e1"/><path d="M-336.44-279s-14.875-11.233-26.418-8.61l-1.014.28a7.363 7.363 0 0 0-3.923 2.755 6.666 6.666 0 0 0-.423.704l-4.263 7.244 7.363 1.436a13.117 13.117 0 0 0 10.5 2.063l13.116 2.564z" style="isolation:isolate" fill="url(#a)" opacity=".3" transform="translate(381.317 288.007)"/><path d="m13.39 8.863-1.019.286c-4.71 1.52-6.32 5.927-3.613 9.79a12.592 12.592 0 0 0 13.439 4.233l17.6-5.73S24.95 6.24 13.39 8.864z" fill="#518ac8"/><path d="m-367.926-279.143-1.02.286c-4.71 1.52-6.32 5.926-3.612 9.79a12.592 12.592 0 0 0 13.438 4.233l17.6-5.73s-14.845-11.203-26.406-8.58z" style="isolation:isolate" fill="url(#b)" opacity=".3" transform="translate(381.317 288.007)"/><path d="M-344.74-266.438a12.586 12.586 0 0 0-13.462-4.263l-17.582 5.7-5.533 9.849 31.498 5.366 5.646-10.046c1.127-1.926 1.014-4.353-.566-6.606z" fill="url(#c)" transform="translate(381.317 288.007)"/><path d="M-350.272-256.589a12.604 12.604 0 0 0-13.433-4.263l-17.612 5.7s14.906 11.233 26.418 8.61l1.014-.28c4.716-1.497 6.326-5.903 3.613-9.767z" fill="url(#d)" transform="translate(381.317 288.007)"/><path d="M65.088 15.719a7.155 7.155 0 0 0 4.83 2.027c2.027 0 3.696-1.192 3.696-3.22 0-4.65-9.241-3.517-9.241-9.24 0-2.684 2.385-4.95 5.783-4.95a7.155 7.155 0 0 1 4.949 1.79l-.9 1.55a6.189 6.189 0 0 0-4.055-1.61c-2.385 0-3.875 1.55-3.935 3.16 0 4.412 9.241 3.16 9.241 9.241 0 2.743-2.146 5.008-5.604 5.008a7.965 7.965 0 0 1-5.843-2.385zM94.362.456a9.378 9.378 0 0 1 9.42 9.48 9.54 9.54 0 0 1-9.42 9.658h-.06a9.54 9.54 0 0 1-9.42-9.658v-.06a9.378 9.378 0 0 1 9.48-9.42zm-.06 17.469a7.75 7.75 0 0 0 7.572-7.924v-.065c0-4.412-3.338-7.81-7.512-7.81a7.584 7.584 0 0 0-7.572 7.75c0 4.531 3.34 7.99 7.513 8.049zM114.515.814h1.789l-.06 16.873h8.586v1.61h-10.434zm20.212.06h1.788l-.06 18.542h-1.788zm13.832 0h5.962c5.545 0 9.3 3.398 9.3 9.3 0 5.903-3.755 9.242-9.3 9.242h-5.962zm5.723 16.932c4.532 0 7.572-2.683 7.632-7.632.06-4.948-3.04-7.631-7.572-7.631h-3.995l-.06 15.263z" fill="#fff"/><path d="M163.82 38.109q0 1.541-1.145 2.49-1.127.928-3.063.928-3.34 0-4.605-2.43l2.273-1.344q.652 1.285 2.371 1.285.573 0 .929-.218.356-.237.356-.553 0-.336-.376-.573-.355-.237-1.304-.455-3.754-.83-3.754-3.418 0-1.463 1.185-2.391 1.206-.949 2.865-.949 1.423 0 2.47.573 1.068.573 1.601 1.561l-2.233 1.324q-.593-1.008-1.917-1.008-.474 0-.79.238-.316.217-.316.533 0 .672 1.383.968 2.035.415 3.043 1.265 1.028.83 1.028 2.174zm-10.176-1.245h-7.667q.138.948.87 1.521.73.554 1.738.554.712 0 1.344-.336.652-.356 1.008-.929l2.233 1.462q-1.324 2.391-4.545 2.391-2.43 0-4.13-1.541-1.66-1.58-1.66-3.992 0-2.252 1.64-3.893 1.64-1.62 3.952-1.62 2.332 0 3.794 1.462 1.463 1.463 1.463 3.814 0 .633-.04 1.107zm-7.588-2.036h4.545q-.06-.75-.672-1.284-.593-.553-1.58-.553-.97 0-1.582.612-.612.593-.711 1.225zm-15.572-4.09h3.26l2.61 7.035 2.608-7.035h3.26l-4.327 10.552h-3.142zm-3.28-5.592q.81 0 1.364.553.573.553.573 1.363 0 .79-.573 1.344-.554.554-1.364.554-.77 0-1.344-.554-.553-.553-.553-1.344 0-.79.553-1.343.573-.573 1.344-.573zm1.581 16.144h-3.102V30.738h3.102zm-5.474-2.608v2.549q-.652.198-1.442.198-2.036 0-3.123-1.048-1.067-1.047-1.067-2.924v-4.051h-1.897v-2.668h1.937v-3.3h3.043v3.3h2.609v2.668h-2.609v3.675q0 .89.455 1.285.454.395 1.383.395.415 0 .711-.08zm-10.947-13.536q.81 0 1.363.553.573.553.573 1.363 0 .79-.573 1.344-.553.554-1.363.554-.77 0-1.344-.554-.553-.553-.553-1.344 0-.79.553-1.343.573-.573 1.344-.573zm1.58 16.144h-3.102V30.738h3.103zm-10.65-7.904q-.89 0-1.403.533-.494.534-.494 1.483v5.888h-3.063v-5.849q0-2.055-1.72-2.055-.909 0-1.403.553-.474.554-.474 1.502v5.85h-3.083V30.737h3.024v1.383h.04q.414-.75 1.264-1.185.85-.435 1.818-.435 2.194 0 3.083 1.68.79-.89 1.6-1.285.81-.395 1.897-.395 1.818 0 2.767 1.126.948 1.127.948 3.083v6.58h-3.082v-5.888q0-2.016-1.72-2.016zm-16.066-8.24q.81 0 1.364.553.573.553.573 1.363 0 .79-.573 1.344-.554.554-1.364.554-.77 0-1.344-.554-.553-.553-.553-1.344 0-.79.553-1.343.573-.573 1.344-.573zm1.58 16.144h-3.102V30.738h3.103zm-4.82-10.592v3.044q-.356-.06-.732-.06-1.442 0-2.154.83-.711.83-.711 2.312v4.466h-3.083V30.738h3.063v1.62h.02q.355-.75 1.146-1.244.81-.494 1.838-.494.395 0 .612.079zm-8.695.08q0 2.47-1.562 3.774-1.56 1.284-4.09 1.284h-2.43v5.454h-3.202V25.818h5.75q2.431 0 3.972 1.304 1.562 1.264 1.562 3.655zm-3.221.079q0-1.008-.712-1.502-.711-.514-1.877-.514H67.21v4.011h2.293q1.126 0 1.837-.513.732-.514.732-1.482z" fill="#fff"/></svg>