<svg xmlns="http://www.w3.org/2000/svg" width="50" height="50" viewBox="0 0 13.229 13.229" version="1.1" id="svg8">
    <path d="M11.921 10.27c-.627.149-.944.286-1.72.791a10.32 10.32 0 01-2.537 1.149s-.11.165-.427.239c-.549.133-2.614.247-2.802.25-.506.005-.816-.129-.902-.336-.263-.627.376-.902.376-.902s-.14-.086-.223-.164c-.075-.075-.153-.224-.177-.169-.098.24-.148.823-.411 1.086-.36.364-1.043.243-1.446.031-.443-.235.03-.788.03-.788s-.238.141-.43-.149c-.173-.266-.334-.72-.29-1.281.047-.64.76-1.259.76-1.259s-.125-.944.286-1.913c.373-.881 1.376-1.591 1.376-1.591s-.843-.933-.53-1.772c.205-.548.287-.545.354-.568.235-.09.462-.188.63-.372.843-.91 1.917-.737 1.917-.737s.51-1.549.98-1.247c.145.094.667 1.255.667 1.255s.556-.326.62-.204c.336.654.375 1.905.226 2.665-.25 1.255-.878 1.929-1.128 2.352-.06.098.674.408 1.136 1.69.428 1.171.047 2.155.114 2.265l.015.027s.49.04 1.474-.568c.525-.325 1.149-.69 1.858-.698.686-.01.721.792.204.918z" id="path1129" fill="#000" stroke-width=".039"/>
</svg>