<svg viewBox="0 0 18.911 26.988" xml:space="preserve" xmlns:xlink="http://www.w3.org/1999/xlink" xmlns="http://www.w3.org/2000/svg"><defs><linearGradient id="c"><stop offset="0" stop-color="#edeff7"/><stop offset="1" stop-color="#d4d9ee"/></linearGradient><linearGradient id="a"><stop offset="0" stop-color="#fbfcff"/><stop offset="1" stop-color="#f4f7fe"/></linearGradient><linearGradient id="b"><stop offset="0" stop-color="#eaf1fb" stop-opacity=".486"/><stop offset="1" stop-color="#dbeffb"/></linearGradient><linearGradient xlink:href="#a" id="g" gradientUnits="userSpaceOnUse" x1="935.221" y1="-287.054" x2="948.029" y2="-287.054" gradientTransform="translate(161.83 1.776)"/><linearGradient xlink:href="#b" id="d" gradientUnits="userSpaceOnUse" gradientTransform="matrix(-1 0 0 1 2029.236 -15.278)" x1="918.917" y1="-261.811" x2="932.294" y2="-261.811"/><linearGradient xlink:href="#c" id="f" x1="1097.05" y1="-282.307" x2="1110.43" y2="-282.307" gradientUnits="userSpaceOnUse"/><filter id="e" x="-.133" y="-.183" width="1.265" height="1.365" color-interpolation-filters="sRGB"><feGaussianBlur stdDeviation=".826"/></filter></defs><path d="M1104.767-278.87c2.51 2.541 3.826 3.01 3.826 3.01s-.148 1.146.774 1.841c.32.24 2.55.494 2.523.536-.904 1.372-1.873 2.728-3.206 3.803l-11.198-6.465a1.09 1.09 0 0 1 0-1.888l4.337-2.503 1.31 2.105a3.27 3.27 0 0 1 1.634-.439z" opacity=".431" fill="url(#d)" filter="url(#e)" transform="translate(-1094.96 293.126)"/><path d="M1110.427-290.154a3.27 3.27 0 0 0-1.634.438l-7.578 4.376h-4.165v3.033h.01c0 .388.203.748.538.944l11.197 6.465a3.27 3.27 0 0 0 1.635.438v-2.972z" fill="url(#f)" transform="translate(-1094.96 293.126)"/><path d="M1110.427-293.126a3.27 3.27 0 0 0-1.634.439l-11.198 6.464a1.09 1.09 0 0 0 0 1.889l11.198 6.464a3.27 3.27 0 0 0 1.634.438z" fill="url(#g)" transform="translate(-1094.96 293.126)"/></svg>