<?xml version="1.0" encoding="UTF-8" standalone="no"?>
<!-- Created with Inkscape (http://www.inkscape.org/) -->

<svg
   width="793.70081"
   height="1122.5197"
   viewBox="0 0 210 296.99999"
   version="1.1"
   id="svg5"
   xml:space="preserve"
   inkscape:version="1.2.1 (9c6d41e, 2022-07-14)"
   sodipodi:docname="proto-3.svg"
   xmlns:inkscape="http://www.inkscape.org/namespaces/inkscape"
   xmlns:sodipodi="http://sodipodi.sourceforge.net/DTD/sodipodi-0.dtd"
   xmlns:xlink="http://www.w3.org/1999/xlink"
   xmlns="http://www.w3.org/2000/svg"
   xmlns:svg="http://www.w3.org/2000/svg"><sodipodi:namedview
     id="namedview7"
     pagecolor="#ffffff"
     bordercolor="#000000"
     borderopacity="0.25"
     inkscape:showpageshadow="2"
     inkscape:pageopacity="0.0"
     inkscape:pagecheckerboard="0"
     inkscape:deskcolor="#d1d1d1"
     inkscape:document-units="px"
     showgrid="false"
     inkscape:zoom="0.68166293"
     inkscape:cx="3866.2804"
     inkscape:cy="-1068.71"
     inkscape:window-width="1728"
     inkscape:window-height="1051"
     inkscape:window-x="0"
     inkscape:window-y="38"
     inkscape:window-maximized="1"
     inkscape:current-layer="layer1"
     showguides="true"><sodipodi:guide
       position="337.35345,157.23407"
       orientation="0,-1"
       id="guide17183"
       inkscape:locked="false" /></sodipodi:namedview><defs
     id="defs2"><linearGradient
       inkscape:collect="always"
       id="linearGradient3150"><stop
         style="stop-color:#edeff7;stop-opacity:1;"
         offset="0"
         id="stop3146" /><stop
         style="stop-color:#d4d9ee;stop-opacity:1;"
         offset="1"
         id="stop3148" /></linearGradient><linearGradient
       inkscape:collect="always"
       id="linearGradient3142"><stop
         style="stop-color:#d4d9ee;stop-opacity:1;"
         offset="0"
         id="stop3138" /><stop
         style="stop-color:#c8d0eb;stop-opacity:1;"
         offset="1"
         id="stop3140" /></linearGradient><linearGradient
       inkscape:collect="always"
       id="linearGradient1520"><stop
         style="stop-color:#f4f7fe;stop-opacity:1;"
         offset="0"
         id="stop1516" /><stop
         style="stop-color:#eef2fd;stop-opacity:1;"
         offset="1"
         id="stop1518" /></linearGradient><linearGradient
       inkscape:collect="always"
       id="linearGradient1512"><stop
         style="stop-color:#fbfcff;stop-opacity:1;"
         offset="0"
         id="stop1508" /><stop
         style="stop-color:#f4f7fe;stop-opacity:1;"
         offset="1"
         id="stop1510" /></linearGradient><linearGradient
       inkscape:collect="always"
       id="linearGradient50177"><stop
         style="stop-color:#eaf1fb;stop-opacity:1;"
         offset="0"
         id="stop50173" /><stop
         style="stop-color:#dbeffb;stop-opacity:1;"
         offset="1"
         id="stop50175" /></linearGradient><linearGradient
       inkscape:collect="always"
       id="linearGradient49816"><stop
         style="stop-color:#cdddf5;stop-opacity:1"
         offset="0"
         id="stop49812" /><stop
         style="stop-color:#aabbec;stop-opacity:1;"
         offset="1"
         id="stop49814" /></linearGradient><linearGradient
       inkscape:collect="always"
       id="linearGradient46463"><stop
         style="stop-color:#dbeffb;stop-opacity:1;"
         offset="0"
         id="stop46459" /><stop
         style="stop-color:#becbef;stop-opacity:1;"
         offset="1"
         id="stop46461" /></linearGradient><linearGradient
       inkscape:collect="always"
       id="linearGradient46431"><stop
         style="stop-color:#edeff7;stop-opacity:1;"
         offset="0"
         id="stop46427" /><stop
         style="stop-color:#c8d0eb;stop-opacity:1;"
         offset="1"
         id="stop46429" /></linearGradient><linearGradient
       inkscape:collect="always"
       id="linearGradient46423"><stop
         style="stop-color:#dbeffb;stop-opacity:0.73611104;"
         offset="0"
         id="stop46419" /><stop
         style="stop-color:#becbef;stop-opacity:0.72453707;"
         offset="1"
         id="stop46421" /></linearGradient><linearGradient
       inkscape:collect="always"
       id="linearGradient37350"><stop
         style="stop-color:#fbfcff;stop-opacity:1"
         offset="0"
         id="stop37346" /><stop
         style="stop-color:#eef2fd;stop-opacity:1;"
         offset="1"
         id="stop37348" /></linearGradient><linearGradient
       inkscape:collect="always"
       id="linearGradient17407"><stop
         style="stop-color:#ffffff;stop-opacity:1;"
         offset="0"
         id="stop17403" /><stop
         style="stop-color:#000000;stop-opacity:1;"
         offset="1"
         id="stop17405" /></linearGradient><inkscape:path-effect
       effect="fillet_chamfer"
       id="path-effect17173"
       is_visible="true"
       lpeversion="1"
       nodesatellites_param="F,0,0,1,0,0,0,1 @ F,0,0,1,0,0,0,1 @ F,0,0,1,0,0,0,1 @ F,0,0,1,0,0,0,1"
       unit="px"
       method="auto"
       mode="F"
       radius="0"
       chamfer_steps="1"
       flexible="false"
       use_knot_distance="true"
       apply_no_radius="true"
       apply_with_radius="true"
       only_selected="false"
       hide_knots="false" /><inkscape:path-effect
       effect="fillet_chamfer"
       id="path-effect14078"
       is_visible="true"
       lpeversion="1"
       nodesatellites_param="F,0,1,1,0,1.887939,0,1 @ F,0,1,1,0,1.887939,0,1 @ F,0,1,1,0,1.887939,0,1 @ F,0,0,1,0,1.887939,0,1"
       unit="px"
       method="auto"
       mode="F"
       radius="0"
       chamfer_steps="1"
       flexible="false"
       use_knot_distance="true"
       apply_no_radius="true"
       apply_with_radius="true"
       only_selected="false"
       hide_knots="false" /><inkscape:perspective
       sodipodi:type="inkscape:persp3d"
       inkscape:vp_x="0 : 148.5 : 1"
       inkscape:vp_y="0 : 1000 : 0"
       inkscape:vp_z="210 : 148.5 : 1"
       inkscape:persp3d-origin="105 : 98.999997 : 1"
       id="perspective13938" /><mask
       maskUnits="userSpaceOnUse"
       id="mask17490"><rect
         style="fill:url(#linearGradient17494);fill-opacity:1;stroke:none;stroke-width:0.274442"
         id="rect17492"
         width="131.65099"
         height="17.928383"
         x="322.22021"
         y="109.08289"
         mask="none"
         transform="scale(1,-1)" /></mask><linearGradient
       inkscape:collect="always"
       xlink:href="#linearGradient17407"
       id="linearGradient17494"
       gradientUnits="userSpaceOnUse"
       x1="390.6926"
       y1="108.93027"
       x2="390.6926"
       y2="112.00736" /><filter
       inkscape:collect="always"
       style="color-interpolation-filters:sRGB"
       id="filter46453"
       x="-0.054374556"
       y="-0.092697887"
       width="1.1087491"
       height="1.1853958"><feGaussianBlur
         inkscape:collect="always"
         stdDeviation="0.60615513"
         id="feGaussianBlur46455" /></filter><linearGradient
       inkscape:collect="always"
       xlink:href="#linearGradient49816"
       id="linearGradient47988"
       gradientUnits="userSpaceOnUse"
       x1="918.91699"
       y1="-261.81067"
       x2="932.29413"
       y2="-261.81067"
       gradientTransform="translate(213.42659,-15.62127)" /><linearGradient
       inkscape:collect="always"
       xlink:href="#linearGradient46463"
       id="linearGradient49710"
       gradientUnits="userSpaceOnUse"
       x1="902.18412"
       y1="-261.81067"
       x2="935.64946"
       y2="-261.81067"
       gradientTransform="translate(-87.994758,-136.62803)" /><linearGradient
       inkscape:collect="always"
       xlink:href="#linearGradient46423"
       id="linearGradient49712"
       gradientUnits="userSpaceOnUse"
       x1="902.18412"
       y1="-261.81067"
       x2="935.64946"
       y2="-261.81067" /><linearGradient
       inkscape:collect="always"
       xlink:href="#linearGradient46431"
       id="linearGradient49714"
       gradientUnits="userSpaceOnUse"
       gradientTransform="translate(609.27847,-383.96231)"
       x1="296.26091"
       y1="117.2763"
       x2="323.01402"
       y2="117.2763" /><linearGradient
       inkscape:collect="always"
       xlink:href="#linearGradient37350"
       id="linearGradient49716"
       gradientUnits="userSpaceOnUse"
       gradientTransform="translate(609.27847,-383.96231)"
       x1="296.26099"
       y1="114.30479"
       x2="323.01565"
       y2="114.30479" /><filter
       inkscape:collect="always"
       style="color-interpolation-filters:sRGB"
       id="filter50216"
       x="-0.098202893"
       y="-0.14985659"
       width="1.1964058"
       height="1.2997132"><feGaussianBlur
         inkscape:collect="always"
         stdDeviation="0.97991347"
         id="feGaussianBlur50218" /></filter><filter
       inkscape:collect="always"
       style="color-interpolation-filters:sRGB"
       id="filter50220"
       x="-0.04386262"
       y="-0.38298759"
       width="1.0877252"
       height="1.7659752"><feGaussianBlur
         inkscape:collect="always"
         stdDeviation="2.4369726"
         id="feGaussianBlur50222" /></filter><filter
       inkscape:collect="always"
       style="color-interpolation-filters:sRGB"
       id="filter50224"
       x="-0.082835073"
       y="-0.12987906"
       width="1.1656701"
       height="1.2597581"><feGaussianBlur
         inkscape:collect="always"
         stdDeviation="0.82556541"
         id="feGaussianBlur50226" /></filter><linearGradient
       inkscape:collect="always"
       xlink:href="#linearGradient1520"
       id="linearGradient1522"
       x1="989.97701"
       y1="-260.69421"
       x2="1003.3556"
       y2="-260.69421"
       gradientUnits="userSpaceOnUse"
       gradientTransform="translate(141.75065,-24.927642)" /><linearGradient
       inkscape:collect="always"
       xlink:href="#linearGradient1512"
       id="linearGradient3114"
       gradientUnits="userSpaceOnUse"
       x1="935.22077"
       y1="-287.05443"
       x2="948.02856"
       y2="-287.05444"
       gradientTransform="translate(161.82927,1.775724)" /><linearGradient
       inkscape:collect="always"
       xlink:href="#linearGradient50177"
       id="linearGradient3116"
       gradientUnits="userSpaceOnUse"
       gradientTransform="matrix(-1,0,0,1,2029.2357,-15.278098)"
       x1="918.91699"
       y1="-261.81067"
       x2="932.29413"
       y2="-261.81067" /><linearGradient
       inkscape:collect="always"
       xlink:href="#linearGradient3142"
       id="linearGradient3144"
       x1="1110.4299"
       y1="-282.30705"
       x2="1123.8082"
       y2="-282.30705"
       gradientUnits="userSpaceOnUse"
       gradientTransform="translate(21.303207,-0.34315047)" /><linearGradient
       inkscape:collect="always"
       xlink:href="#linearGradient3150"
       id="linearGradient3152"
       x1="1097.0502"
       y1="-282.30705"
       x2="1110.4299"
       y2="-282.30705"
       gradientUnits="userSpaceOnUse" /></defs><g
     inkscape:label="Layer 1"
     inkscape:groupmode="layer"
     id="layer1"><path
       id="path47976"
       style="opacity:0.194444;fill:url(#linearGradient47988);fill-opacity:1;stroke:none;stroke-width:0.347789;filter:url(#filter50216)"
       d="m 1132.3435,-285.2787 -10.5712,7.50366 c 3.947,-0.23539 6.2707,3.74865 10.5712,8.18996 0.5738,-1.3e-4 1.1376,-0.15126 1.6345,-0.43822 l 11.1978,-6.46472 c 0.7264,-0.41959 0.7264,-1.46815 0,-1.88774 l -11.1978,-6.46472 c -0.4969,-0.28696 -1.0607,-0.4381 -1.6345,-0.43822 z"
       sodipodi:nodetypes="cccccccc" /><path
       id="path48641"
       style="opacity:0.377778;fill:#cdddf5;fill-opacity:1;stroke:none;stroke-width:0.347789;filter:url(#filter50220)"
       d="m 1075.1622,-282.91557 -6.5565,11.86029 v 0 H 948.418 l -6.59791,-9.22315 5.63852,-4.86781 119.51259,-1.16444 c 0.4969,-0.28696 7.6172,3.39523 8.191,3.39511 z"
       sodipodi:nodetypes="cccccccc" /><g
       id="g2260"
       transform="translate(0.07104971,0.03763595)"><rect
         style="fill:#d4d9ee;fill-opacity:1;stroke:none;stroke-width:0.39886"
         id="rect42237"
         width="119.47076"
         height="15.69362"
         x="948.52655"
         y="-291.96698"
         ry="0" /><rect
         style="fill:#f4f7fe;fill-opacity:1;stroke:none;stroke-width:0.39886"
         id="rect42166"
         width="119.47076"
         height="15.69362"
         x="948.52588"
         y="-294.93887"
         ry="0" /></g><path
       id="path3108"
       style="opacity:0.431482;fill:url(#linearGradient3116);fill-opacity:1;stroke:none;stroke-width:0.347789;filter:url(#filter50224)"
       d="m 1110.3187,-284.93552 10.5422,4.9605 c -7.3396,0.0587 -7.7489,6.72377 -12.1767,10.2949 l -11.1978,-6.46472 c -0.7264,-0.41959 -0.7264,-1.46815 0,-1.88774 l 11.1978,-6.46472 c 0.4969,-0.28696 1.0606,-0.4381 1.6345,-0.43822 z"
       sodipodi:nodetypes="ccccccc" /><path
       id="path41318"
       style="fill:url(#linearGradient3144);fill-opacity:1;stroke:none;stroke-width:0.347789"
       d="m 1131.7352,-290.49726 v 15.69413 a 3.2701029,3.2701029 0 0 0 1.6356,-0.43821 l 11.1972,-6.46473 a 1.0900017,1.0900017 0 0 0 0.5416,-1.00614 v 0 -2.97139 h -4.1626 l -7.5778,-4.37544 a 3.2699072,3.2699072 0 0 0 -1.6351,-0.43822 3.2699072,3.2699072 0 0 0 -10e-4,0 z" /><path
       id="path42147"
       style="fill:url(#linearGradient1522);fill-opacity:1;stroke:none;stroke-width:0.347789"
       d="m 1131.7277,-293.46866 v 15.69362 a 3.2701029,3.2701029 0 0 0 1.6361,-0.43822 l 11.1972,-6.4642 a 1.0900017,1.0900017 0 0 0 0,-1.88826 l -11.1972,-6.46472 a 3.2699072,3.2699072 0 0 0 -1.6361,-0.43822 z" /><path
       id="path49698"
       style="opacity:1;fill:url(#linearGradient49710);fill-opacity:1;stroke:none;stroke-width:0.347789"
       d="m 829.28707,-405.84744 -11.1974,6.46499 a 1.0900033,1.0900033 0 0 0 1e-4,1.88794 l 11.1972,6.46457 a 3.2701029,3.2701029 0 0 0 3.2701,0 l 11.1973,-6.46457 a 1.0900017,1.0900017 0 0 0 0,-1.88794 l -11.1974,-6.46499 a 3.2699072,3.2699072 0 0 0 -3.2699,0 z" /><path
       id="path49700"
       style="mix-blend-mode:normal;fill:url(#linearGradient49712);fill-opacity:1;stroke:none;stroke-width:0.347789;filter:url(#filter46453)"
       d="m 917.28179,-269.21941 -11.19734,6.46499 a 1.0900033,1.0900033 0 0 0 3e-5,1.88794 l 11.19729,6.46457 a 3.2701029,3.2701029 0 0 0 3.27003,0 l 11.1973,-6.46457 a 1.0900017,1.0900017 0 0 0 3e-5,-1.88794 l -11.19736,-6.46499 a 3.2699072,3.2699072 0 0 0 -3.26998,0 z"
       transform="matrix(0.71930662,0,0,0.71930662,169.9391,-211.9593)" /><g
       id="g49706"
       transform="translate(-87.994758,-136.62803)"><path
         id="path49702"
         style="fill:url(#linearGradient49714);fill-opacity:1;stroke:none;stroke-width:0.347789"
         d="m 918.91686,-274.53302 a 3.2699072,3.2699072 0 0 0 -1.63505,0.43821 l -7.57783,4.37545 h -4.1646 v 3.0334 h 0.007 a 1.0900033,1.0900033 0 0 0 0.53795,0.94413 l 11.19725,6.46472 a 3.2701029,3.2701029 0 0 0 3.27009,0 l 11.19725,-6.46472 a 1.0900017,1.0900017 0 0 0 0.54157,-1.00614 h 0.002 v -2.97139 h -4.16254 l -7.57783,-4.37545 a 3.2699072,3.2699072 0 0 0 -1.63504,-0.43821 z" /><path
         id="path49704"
         style="fill:url(#linearGradient49716);fill-opacity:1;stroke:none;stroke-width:0.347789"
         d="m 917.28179,-277.06626 -11.19734,6.46499 a 1.0900033,1.0900033 0 0 0 3e-5,1.88794 l 11.19729,6.46457 a 3.2701029,3.2701029 0 0 0 3.27003,0 l 11.1973,-6.46457 a 1.0900017,1.0900017 0 0 0 3e-5,-1.88794 l -11.19736,-6.46499 a 3.2699072,3.2699072 0 0 0 -3.26998,0 z" /></g><path
       id="path3110"
       style="fill:url(#linearGradient3152);fill-opacity:1;stroke:none;stroke-width:0.347789"
       d="m 1110.4266,-290.15411 a 3.2699072,3.2699072 0 0 0 -1.634,0.43822 l -7.5778,4.37544 h -4.1646 v 3.03341 h 0.01 a 1.0900033,1.0900033 0 0 0 0.5379,0.94412 l 11.1973,6.46473 a 3.2701029,3.2701029 0 0 0 1.6345,0.43821 v -2.97191 z" /><path
       id="path3112"
       style="fill:url(#linearGradient3114);fill-opacity:1;stroke:none;stroke-width:0.347789"
       d="m 1110.4266,-293.12551 a 3.2699072,3.2699072 0 0 0 -1.634,0.43822 l -11.1973,6.46472 a 1.0900033,1.0900033 0 0 0 0,1.88826 l 11.1973,6.4642 a 3.2701029,3.2701029 0 0 0 1.634,0.43822 z" /></g></svg>
