<?xml version="1.0" encoding="UTF-8" standalone="no"?>
<!-- Created with Inkscape (http://www.inkscape.org/) -->

<svg
   width="619.16522"
   height="158.21501"
   viewBox="0 0 163.82079 41.861055"
   version="1.1"
   id="svg5"
   xml:space="preserve"
   inkscape:version="1.2.1 (9c6d41e, 2022-07-14)"
   sodipodi:docname="solid-primitives-logo2.svg"
   inkscape:export-filename="solid-primitives-logo.svg"
   inkscape:export-xdpi="96"
   inkscape:export-ydpi="96"
   xmlns:inkscape="http://www.inkscape.org/namespaces/inkscape"
   xmlns:sodipodi="http://sodipodi.sourceforge.net/DTD/sodipodi-0.dtd"
   xmlns="http://www.w3.org/2000/svg"
   xmlns:svg="http://www.w3.org/2000/svg"><sodipodi:namedview
     id="namedview7"
     pagecolor="#ffffff"
     bordercolor="#000000"
     borderopacity="0.25"
     inkscape:showpageshadow="2"
     inkscape:pageopacity="0.0"
     inkscape:pagecheckerboard="0"
     inkscape:deskcolor="#d1d1d1"
     inkscape:document-units="mm"
     showgrid="false"
     inkscape:zoom="1.0090678"
     inkscape:cx="245.27589"
     inkscape:cy="50.046191"
     inkscape:window-width="1728"
     inkscape:window-height="1051"
     inkscape:window-x="0"
     inkscape:window-y="38"
     inkscape:window-maximized="1"
     inkscape:current-layer="layer1" /><defs
     id="defs2"><style
       id="style811">
      .a {
        fill: #76b3e1;
      }

      .b, .d {
        isolation: isolate;
        opacity: 0.3;
      }

      .b {
        fill: url(#a);
      }

      .c {
        fill: #518ac8;
      }

      .d {
        fill: url(#b);
      }

      .e {
        fill: url(#c);
      }

      .f {
        fill: url(#d);
      }

      .g {
        fill: #58595b;
      }
    </style><linearGradient
       id="a-7"
       x1="11.67"
       y1="73.360001"
       x2="70.610001"
       y2="44.720001"
       gradientTransform="matrix(0.59620834,0,0,-0.59620834,-381.63864,-244.39039)"
       gradientUnits="userSpaceOnUse"><stop
         offset="0.1"
         stop-color="#76b3e1"
         id="stop813" /><stop
         offset="0.3"
         stop-color="#dcf2fd"
         id="stop815" /><stop
         offset="1"
         stop-color="#76b3e1"
         id="stop817" /></linearGradient><linearGradient
       id="b-0"
       x1="44"
       y1="59.330002"
       x2="33.68"
       y2="24.959999"
       gradientTransform="matrix(0.59620834,0,0,-0.59620834,-381.63864,-244.39039)"
       gradientUnits="userSpaceOnUse"><stop
         offset="0"
         stop-color="#76b3e1"
         id="stop820" /><stop
         offset="0.5"
         stop-color="#4377bb"
         id="stop822" /><stop
         offset="1"
         stop-color="#1f3b77"
         id="stop824" /></linearGradient><linearGradient
       id="c-3"
       x1="7.3400002"
       y1="44.34"
       x2="66.940002"
       y2="3.8199999"
       gradientTransform="matrix(0.59620834,0,0,-0.59620834,-381.63864,-244.39039)"
       gradientUnits="userSpaceOnUse"><stop
         offset="0"
         stop-color="#315aa9"
         id="stop827" /><stop
         offset="0.5"
         stop-color="#518ac8"
         id="stop829" /><stop
         offset="1"
         stop-color="#315aa9"
         id="stop831" /></linearGradient><linearGradient
       id="d-9"
       x1="34.25"
       y1="39.490002"
       x2="10.2"
       y2="-48.700001"
       gradientTransform="matrix(0.59620834,0,0,-0.59620834,-381.63864,-244.39039)"
       gradientUnits="userSpaceOnUse"><stop
         offset="0"
         stop-color="#4377bb"
         id="stop834" /><stop
         offset="0.5"
         stop-color="#1a336b"
         id="stop836" /><stop
         offset="1"
         stop-color="#1a336b"
         id="stop838" /></linearGradient></defs><g
     inkscape:label="Layer 1"
     inkscape:groupmode="layer"
     id="layer1"
     transform="translate(381.31669,288.00664)"><g
       id="g458"><path
         class="a"
         d="m -336.44009,-279.00028 c 0,0 -14.87539,-11.23257 -26.41799,-8.60925 l -1.01355,0.28022 a 7.363173,7.363173 0 0 0 -3.92305,2.75448 6.6656092,6.6656092 0 0 0 -0.42331,0.70353 l -4.26289,7.24393 7.36317,1.43686 a 13.116583,13.116583 0 0 0 10.49923,2.06288 l 13.11659,2.5637 z"
         id="path843"
         style="stroke-width:0.596208" /><path
         class="b"
         d="m -336.44009,-279.00028 c 0,0 -14.87539,-11.23257 -26.41799,-8.60925 l -1.01355,0.28022 a 7.363173,7.363173 0 0 0 -3.92305,2.75448 6.6656092,6.6656092 0 0 0 -0.42331,0.70353 l -4.26289,7.24393 7.36317,1.43686 a 13.116583,13.116583 0 0 0 10.49923,2.06288 l 13.11659,2.5637 z"
         id="path845"
         style="fill:url(#a-7);stroke-width:0.596208" /><path
         class="c"
         d="m -367.92585,-279.14337 -1.01951,0.28618 c -4.71005,1.52033 -6.31981,5.92631 -3.61303,9.78974 a 12.59192,12.59192 0 0 0 13.43854,4.23308 l 17.60007,-5.72956 c 0,0 -14.84559,-11.20276 -26.40607,-8.57944 z"
         id="path847"
         style="stroke-width:0.596208" /><path
         class="d"
         d="m -367.92585,-279.14337 -1.01951,0.28618 c -4.71005,1.52033 -6.31981,5.92631 -3.61303,9.78974 a 12.59192,12.59192 0 0 0 13.43854,4.23308 l 17.60007,-5.72956 c 0,0 -14.84559,-11.20276 -26.40607,-8.57944 z"
         id="path849"
         style="fill:url(#b-0);stroke-width:0.596208" /><path
         class="e"
         d="m -344.73931,-266.43817 a 12.585958,12.585958 0 0 0 -13.46238,-4.26289 l -17.58218,5.69975 -5.53282,9.84936 31.49769,5.36588 5.64609,-10.04611 c 1.12684,-1.92576 1.01356,-4.35232 -0.5664,-6.60599 z"
         id="path851"
         style="fill:url(#c-3);stroke-width:0.596208" /><path
         class="f"
         d="m -350.27212,-256.58881 a 12.603844,12.603844 0 0 0 -13.43257,-4.26289 l -17.612,5.69975 c 0,0 14.90521,11.23257 26.41799,8.60925 l 1.01356,-0.28022 c 4.71601,-1.49648 6.32577,-5.90246 3.61302,-9.76589 z"
         id="path853"
         style="fill:url(#d-9);stroke-width:0.596208" /></g><path
       class="g"
       d="m -316.22843,-272.2876 a 7.1545216,7.1545216 0 0 0 4.82931,2.02711 c 2.02711,0 3.6965,-1.19242 3.6965,-3.21953 0,-4.65044 -9.24126,-3.51764 -9.24126,-9.24126 0,-2.68294 2.38484,-4.94854 5.78324,-4.94854 a 7.1545216,7.1545216 0 0 1 4.94854,1.78863 l -0.90027,1.55015 a 6.1886611,6.1886611 0 0 0 -4.05423,-1.60977 c -2.38484,0 -3.87537,1.55014 -3.93499,3.15991 0,4.41196 9.24126,3.15992 9.24126,9.24126 0,2.74257 -2.14636,5.00816 -5.60438,5.00816 a 7.9653673,7.9653673 0 0 1 -5.84286,-2.38484 z m 29.27392,-15.26298 a 9.3783853,9.3783853 0 0 1 9.42012,9.47974 9.5393621,9.5393621 0 0 1 -9.42012,9.65861 h -0.0596 a 9.5393621,9.5393621 0 0 1 -9.42012,-9.65861 v -0.0596 a 9.3783853,9.3783853 0 0 1 9.47974,-9.42012 z m -0.0596,17.46896 a 7.7507317,7.7507317 0 0 0 7.57187,-7.92363 v -0.0656 c 0,-4.41196 -3.33878,-7.81036 -7.51225,-7.81036 a 7.5837929,7.5837929 0 0 0 -7.57187,7.75074 c 0,4.53119 3.33878,7.98921 7.51225,8.04883 z m 20.21152,-17.11123 h 1.78863 l -0.0596,16.87274 h 8.58543 v 1.60977 h -10.43368 z m 20.21153,0.0596 h 1.78863 l -0.0596,18.54213 h -1.78863 z m 13.83207,0 h 5.9621 c 5.54476,0 9.30088,3.3984 9.30088,9.30088 0,5.90248 -3.75612,9.24125 -9.30088,9.24125 h -5.9621 z m 5.72362,16.93236 c 4.5312,0 7.57187,-2.68294 7.63149,-7.63148 0.0596,-4.94855 -3.04067,-7.63149 -7.57187,-7.63149 h -3.99461 l -0.0596,15.26297 z"
       id="path857"
       style="stroke-width:0.59621;fill:#ffffff" /><path
       id="path3640"
       style="fill:#ffffff;fill-opacity:1;stroke-width:0.850517"
       d="m -217.49589,-249.89787 q 0,1.54136 -1.14613,2.48987 -1.12637,0.92876 -3.06293,0.92876 -3.33958,0 -4.60427,-2.43058 l 2.27249,-1.34374 q 0.65211,1.28445 2.37131,1.28445 0.57305,0 0.92875,-0.21736 0.3557,-0.23714 0.3557,-0.5533 0,-0.33594 -0.37545,-0.57307 -0.3557,-0.23713 -1.30422,-0.4545 -3.75455,-0.82995 -3.75455,-3.41862 0,-1.4623 1.18563,-2.39106 1.20542,-0.94852 2.86533,-0.94852 1.42278,0 2.4701,0.57306 1.06708,0.57307 1.60063,1.56111 l -2.23297,1.32397 q -0.59283,-1.0078 -1.91681,-1.0078 -0.47425,0 -0.79043,0.23714 -0.31617,0.21735 -0.31617,0.53353 0,0.67188 1.38326,0.96828 2.03536,0.41498 3.04316,1.26469 1.02757,0.82996 1.02757,2.17369 z m -10.17681,-1.24492 h -7.66719 q 0.13833,0.94852 0.86948,1.52158 0.73113,0.5533 1.73895,0.5533 0.71138,0 1.34374,-0.33593 0.6521,-0.3557 1.0078,-0.92876 l 2.23297,1.46231 q -1.32398,2.39105 -4.545,2.39105 -2.43057,0 -4.12999,-1.54135 -1.65992,-1.58086 -1.65992,-3.99168 0,-2.25274 1.64014,-3.89289 1.64016,-1.62038 3.95217,-1.62038 2.33178,0 3.79407,1.4623 1.46231,1.46231 1.46231,3.81384 0,0.63234 -0.0395,1.10661 z m -7.58815,-2.03536 h 4.54499 q -0.0593,-0.75092 -0.67187,-1.28447 -0.59283,-0.5533 -1.58086,-0.5533 -0.96829,0 -1.58088,0.61258 -0.61258,0.59283 -0.71138,1.22519 z m -15.57146,-4.0905 h 3.26053 l 2.60842,7.03486 2.60844,-7.03486 h 3.26053 l -4.32761,10.55227 h -3.14198 z m -3.28027,-5.59231 q 0.81018,0 1.36348,0.5533 0.57308,0.5533 0.57308,1.36349 0,0.79044 -0.57308,1.34374 -0.5533,0.55331 -1.36348,0.55331 -0.77067,0 -1.34374,-0.55331 -0.55331,-0.5533 -0.55331,-1.34374 0,-0.79042 0.55331,-1.34372 0.57307,-0.57307 1.34374,-0.57307 z m 1.58087,16.14458 h -3.10245 v -10.55227 h 3.10245 z m -5.47373,-2.60841 v 2.54914 q -0.6521,0.1976 -1.44255,0.1976 -2.03535,0 -3.1222,-1.04732 -1.06709,-1.04732 -1.06709,-2.9246 v -4.05096 h -1.89703 v -2.66772 h 1.93655 v -3.30006 h 3.04317 v 3.30006 h 2.60844 v 2.66772 h -2.60844 v 3.6755 q 0,0.88924 0.45451,1.28446 0.4545,0.39521 1.38325,0.39521 0.41498,0 0.71139,-0.079 z m -10.94747,-13.53617 q 0.81019,0 1.36349,0.5533 0.57307,0.5533 0.57307,1.36349 0,0.79044 -0.57307,1.34374 -0.5533,0.55331 -1.36349,0.55331 -0.77067,0 -1.34374,-0.55331 -0.5533,-0.5533 -0.5533,-1.34374 0,-0.79042 0.5533,-1.34372 0.57307,-0.57307 1.34374,-0.57307 z m 1.58087,16.14458 h -3.10245 v -10.55227 h 3.10245 z m -10.65107,-7.90433 q -0.88923,0 -1.40302,0.53355 -0.49401,0.53355 -0.49401,1.48206 v 5.88872 h -3.06293 v -5.84919 q 0,-2.05514 -1.71919,-2.05514 -0.909,0 -1.40302,0.55331 -0.47426,0.5533 -0.47426,1.50183 v 5.84919 h -3.0827 v -10.55227 h 3.02341 v 1.38326 h 0.0395 q 0.41497,-0.75091 1.26469,-1.18565 0.84973,-0.43474 1.81801,-0.43474 2.19345,0 3.08269,1.67966 0.79042,-0.88922 1.60061,-1.28445 0.81019,-0.39521 1.89704,-0.39521 1.818,0 2.76652,1.12637 0.94851,1.12637 0.94851,3.08268 v 6.58035 h -3.08269 v -5.88872 q 0,-2.01561 -1.71919,-2.01561 z m -16.06552,-8.24025 q 0.81019,0 1.36349,0.5533 0.57306,0.5533 0.57306,1.36349 0,0.79044 -0.57306,1.34374 -0.5533,0.55331 -1.36349,0.55331 -0.77067,0 -1.34373,-0.55331 -0.55331,-0.5533 -0.55331,-1.34374 0,-0.79042 0.55331,-1.34372 0.57305,-0.57307 1.34373,-0.57307 z m 1.58086,16.14458 h -3.10244 v -10.55227 h 3.10244 z m -4.82162,-10.59179 v 3.04316 q -0.35569,-0.0592 -0.73115,-0.0592 -1.44254,0 -2.15393,0.82996 -0.71139,0.82995 -0.71139,2.31201 v 4.46594 h -3.08268 v -10.55227 h 3.06292 v 1.62039 h 0.0197 q 0.35569,-0.75091 1.14614,-1.24494 0.81019,-0.49401 1.83775,-0.49401 0.39522,0 0.61258,0.0791 z m -8.69475,0.079 q 0,2.4701 -1.5611,3.77431 -1.56111,1.28446 -4.09049,1.28446 h -2.43058 v 5.45398 h -3.20126 v -15.47272 h 5.75039 q 2.43059,0 3.97194,1.30422 1.5611,1.26469 1.5611,3.65575 z m -3.22102,0.0791 q 0,-1.0078 -0.71138,-1.50181 -0.7114,-0.51379 -1.87728,-0.51379 h -2.27249 v 4.01145 h 2.29225 q 1.12637,0 1.83776,-0.51378 0.73114,-0.51378 0.73114,-1.48207 z" /></g></svg>
