<?xml version="1.0" encoding="UTF-8" standalone="no"?>
<!-- Created with Inkscape (http://www.inkscape.org/) -->

<svg
   width="1117.5698"
   height="158.215"
   viewBox="0 0 295.69034 41.861051"
   version="1.1"
   id="svg5"
   xml:space="preserve"
   inkscape:version="1.2.1 (9c6d41e, 2022-07-14)"
   sodipodi:docname="solid-blocks.svg"
   inkscape:export-filename="solid-primitives-logo.svg"
   inkscape:export-xdpi="96"
   inkscape:export-ydpi="96"
   xmlns:inkscape="http://www.inkscape.org/namespaces/inkscape"
   xmlns:sodipodi="http://sodipodi.sourceforge.net/DTD/sodipodi-0.dtd"
   xmlns="http://www.w3.org/2000/svg"
   xmlns:svg="http://www.w3.org/2000/svg"><sodipodi:namedview
     id="namedview7"
     pagecolor="#ffffff"
     bordercolor="#000000"
     borderopacity="0.25"
     inkscape:showpageshadow="2"
     inkscape:pageopacity="0.0"
     inkscape:pagecheckerboard="0"
     inkscape:deskcolor="#d1d1d1"
     inkscape:document-units="mm"
     showgrid="false"
     inkscape:zoom="0.31364851"
     inkscape:cx="-235.9329"
     inkscape:cy="406.506"
     inkscape:window-width="1728"
     inkscape:window-height="1051"
     inkscape:window-x="0"
     inkscape:window-y="38"
     inkscape:window-maximized="1"
     inkscape:current-layer="layer1" /><defs
     id="defs2"><style
       id="style811">
      .a {
        fill: #76b3e1;
      }

      .b, .d {
        isolation: isolate;
        opacity: 0.3;
      }

      .b {
        fill: url(#a);
      }

      .c {
        fill: #518ac8;
      }

      .d {
        fill: url(#b);
      }

      .e {
        fill: url(#c);
      }

      .f {
        fill: url(#d);
      }

      .g {
        fill: #58595b;
      }
    </style><linearGradient
       id="a-7"
       x1="11.67"
       y1="73.360001"
       x2="70.610001"
       y2="44.720001"
       gradientTransform="matrix(0.59620834,0,0,-0.59620834,-381.63864,-245.30594)"
       gradientUnits="userSpaceOnUse"><stop
         offset="0.1"
         stop-color="#76b3e1"
         id="stop813" /><stop
         offset="0.3"
         stop-color="#dcf2fd"
         id="stop815" /><stop
         offset="1"
         stop-color="#76b3e1"
         id="stop817" /></linearGradient><linearGradient
       id="b-0"
       x1="44"
       y1="59.330002"
       x2="33.68"
       y2="24.959999"
       gradientTransform="matrix(0.59620834,0,0,-0.59620834,-381.63864,-245.30594)"
       gradientUnits="userSpaceOnUse"><stop
         offset="0"
         stop-color="#76b3e1"
         id="stop820" /><stop
         offset="0.5"
         stop-color="#4377bb"
         id="stop822" /><stop
         offset="1"
         stop-color="#1f3b77"
         id="stop824" /></linearGradient><linearGradient
       id="c-3"
       x1="7.3400002"
       y1="44.34"
       x2="66.940002"
       y2="3.8199999"
       gradientTransform="matrix(0.59620834,0,0,-0.59620834,-381.63864,-245.30594)"
       gradientUnits="userSpaceOnUse"><stop
         offset="0"
         stop-color="#315aa9"
         id="stop827" /><stop
         offset="0.5"
         stop-color="#518ac8"
         id="stop829" /><stop
         offset="1"
         stop-color="#315aa9"
         id="stop831" /></linearGradient><linearGradient
       id="d-9"
       x1="34.25"
       y1="39.490002"
       x2="10.2"
       y2="-48.700001"
       gradientTransform="matrix(0.59620834,0,0,-0.59620834,-381.63864,-245.30594)"
       gradientUnits="userSpaceOnUse"><stop
         offset="0"
         stop-color="#4377bb"
         id="stop834" /><stop
         offset="0.5"
         stop-color="#1a336b"
         id="stop836" /><stop
         offset="1"
         stop-color="#1a336b"
         id="stop838" /></linearGradient></defs><g
     inkscape:label="Layer 1"
     inkscape:groupmode="layer"
     id="layer1"
     transform="translate(381.31668,288.92219)"><g
       id="g3892"><path
         class="a"
         d="m -336.44009,-279.91583 c 0,0 -14.87539,-11.23257 -26.41799,-8.60925 l -1.01355,0.28022 a 7.363173,7.363173 0 0 0 -3.92305,2.75448 6.6656092,6.6656092 0 0 0 -0.42331,0.70353 l -4.26289,7.24393 7.36317,1.43686 a 13.116583,13.116583 0 0 0 10.49923,2.06288 l 13.11659,2.5637 z"
         id="path843"
         style="stroke-width:0.596208" /><path
         class="b"
         d="m -336.44009,-279.91583 c 0,0 -14.87539,-11.23257 -26.41799,-8.60925 l -1.01355,0.28022 a 7.363173,7.363173 0 0 0 -3.92305,2.75448 6.6656092,6.6656092 0 0 0 -0.42331,0.70353 l -4.26289,7.24393 7.36317,1.43686 a 13.116583,13.116583 0 0 0 10.49923,2.06288 l 13.11659,2.5637 z"
         id="path845"
         style="fill:url(#a-7);stroke-width:0.596208" /><path
         class="c"
         d="m -367.92585,-280.05892 -1.01951,0.28618 c -4.71005,1.52033 -6.31981,5.92631 -3.61303,9.78974 a 12.59192,12.59192 0 0 0 13.43854,4.23308 l 17.60007,-5.72956 c 0,0 -14.84559,-11.20276 -26.40607,-8.57944 z"
         id="path847"
         style="stroke-width:0.596208" /><path
         class="d"
         d="m -367.92585,-280.05892 -1.01951,0.28618 c -4.71005,1.52033 -6.31981,5.92631 -3.61303,9.78974 a 12.59192,12.59192 0 0 0 13.43854,4.23308 l 17.60007,-5.72956 c 0,0 -14.84559,-11.20276 -26.40607,-8.57944 z"
         id="path849"
         style="fill:url(#b-0);stroke-width:0.596208" /><path
         class="e"
         d="m -344.73931,-267.35372 a 12.585958,12.585958 0 0 0 -13.46238,-4.26289 l -17.58218,5.69975 -5.53282,9.84936 31.49769,5.36588 5.64609,-10.04611 c 1.12684,-1.92576 1.01356,-4.35232 -0.5664,-6.60599 z"
         id="path851"
         style="fill:url(#c-3);stroke-width:0.596208" /><path
         class="f"
         d="m -350.27212,-257.50436 a 12.603844,12.603844 0 0 0 -13.43257,-4.26289 l -17.612,5.69975 c 0,0 14.90521,11.23257 26.41799,8.60925 l 1.01356,-0.28022 c 4.71601,-1.49648 6.32577,-5.90246 3.61302,-9.76589 z"
         id="path853"
         style="fill:url(#d-9);stroke-width:0.596208" /></g><g
       id="g3884"><path
         class="g"
         d="m -316.22843,-262.23817 a 7.1545216,7.1545216 0 0 0 4.82931,2.02711 c 2.02711,0 3.6965,-1.19242 3.6965,-3.21953 0,-4.65044 -9.24126,-3.51764 -9.24126,-9.24126 0,-2.68294 2.38484,-4.94854 5.78324,-4.94854 a 7.1545216,7.1545216 0 0 1 4.94854,1.78863 l -0.90027,1.55015 a 6.1886611,6.1886611 0 0 0 -4.05423,-1.60977 c -2.38484,0 -3.87537,1.55014 -3.93499,3.15991 0,4.41196 9.24126,3.15992 9.24126,9.24126 0,2.74257 -2.14636,5.00816 -5.60438,5.00816 a 7.9653673,7.9653673 0 0 1 -5.84286,-2.38484 z m 29.27392,-15.26298 a 9.3783853,9.3783853 0 0 1 9.42012,9.47974 9.5393621,9.5393621 0 0 1 -9.42012,9.65861 h -0.0596 a 9.5393621,9.5393621 0 0 1 -9.42012,-9.65861 v -0.0596 a 9.3783853,9.3783853 0 0 1 9.47974,-9.42012 z m -0.0596,17.46896 a 7.7507317,7.7507317 0 0 0 7.57187,-7.92363 v -0.0656 c 0,-4.41196 -3.33878,-7.81036 -7.51225,-7.81036 a 7.5837929,7.5837929 0 0 0 -7.57187,7.75074 c 0,4.53119 3.33878,7.98921 7.51225,8.04883 z m 20.21152,-17.11123 h 1.78863 l -0.0596,16.87274 h 8.58543 v 1.60977 h -10.43368 z m 20.21153,0.0596 h 1.78863 l -0.0596,18.54213 h -1.78863 z m 13.83207,0 h 5.9621 c 5.54476,0 9.30088,3.3984 9.30088,9.30088 0,5.90248 -3.75612,9.24125 -9.30088,9.24125 h -5.9621 z m 5.72362,16.93236 c 4.5312,0 7.57187,-2.68294 7.63149,-7.63148 0.0596,-4.94855 -3.04067,-7.63149 -7.57187,-7.63149 h -3.99461 l -0.0596,15.26297 z"
         id="path857"
         style="stroke-width:0.59621" /><path
         id="path3640"
         style="fill:#58595b;fill-opacity:1"
         d="m -85.626335,-262.38219 q 0,1.81225 -1.34757,2.92748 -1.32433,1.09199 -3.60125,1.09199 -3.92653,0 -5.4135,-2.85777 l 2.6719,-1.57991 q 0.76672,1.51021 2.78807,1.51021 0.67378,0 1.09199,-0.25558 0.41821,-0.2788 0.41821,-0.65054 0,-0.39498 -0.44144,-0.67379 -0.41821,-0.2788 -1.53344,-0.53438 -4.41444,-0.97582 -4.41444,-4.01946 0,-1.71931 1.39403,-2.8113 1.41727,-1.11523 3.36892,-1.11523 1.67284,0 2.90423,0.67378 1.25463,0.67379 1.88195,1.83548 l -2.62543,1.55667 q -0.69702,-1.18493 -2.25369,-1.18493 -0.55761,0 -0.92936,0.27881 -0.37174,0.25557 -0.37174,0.62731 0,0.78996 1.62638,1.13847 2.39309,0.48791 3.57802,1.48696 1.20816,0.97583 1.20816,2.55573 z m -11.96544,-1.46373 h -9.014745 q 0.16264,1.11523 1.02229,1.78901 0.85964,0.65055 2.04458,0.65055 0.83642,0 1.57991,-0.39498 0.76672,-0.41821 1.18493,-1.09199 l 2.625425,1.71931 q -1.55667,2.8113 -5.343795,2.8113 -2.85777,0 -4.85588,-1.81225 -1.95165,-1.85871 -1.95165,-4.69324 0,-2.64867 1.92841,-4.57708 1.92842,-1.90518 4.64678,-1.90518 2.7416,0 4.460905,1.71931 1.71931,1.71931 1.71931,4.48414 0,0.74348 -0.0465,1.3011 z m -8.921815,-2.39309 h 5.34379 q -0.0697,-0.88289 -0.78995,-1.51021 -0.69702,-0.65055 -1.85871,-0.65055 -1.13847,0 -1.85872,0.72025 -0.72025,0.69702 -0.83641,1.44051 z m -18.30823,-4.80942 h 3.83359 l 3.06687,8.27127 3.06688,-8.27127 h 3.83359 l -5.08822,12.4069 h -3.69419 z m -3.8568,-6.57519 q 0.95258,0 1.60313,0.65055 0.67379,0.65054 0.67379,1.60313 0,0.92936 -0.67379,1.57991 -0.65055,0.65055 -1.60313,0.65055 -0.90612,0 -1.57991,-0.65055 -0.65055,-0.65055 -0.65055,-1.57991 0,-0.92935 0.65055,-1.5799 0.67379,-0.67378 1.57991,-0.67378 z m 1.85872,18.98209 h -3.64773 v -12.4069 h 3.64773 z m -6.43577,-3.06687 v 2.99717 q -0.76671,0.23234 -1.69608,0.23234 -2.39308,0 -3.67095,-1.2314 -1.25464,-1.23139 -1.25464,-3.43861 v -4.76295 h -2.23044 v -3.13658 h 2.27691 v -3.88006 h 3.57803 v 3.88006 h 3.06688 v 3.13658 h -3.06688 v 4.3215 q 0,1.04553 0.53438,1.5102 0.53438,0.46468 1.62637,0.46468 0.48792,0 0.83642,-0.0929 z m -12.87155,-15.91522 q 0.95258,0 1.60313,0.65055 0.67379,0.65054 0.67379,1.60313 0,0.92936 -0.67379,1.57991 -0.65055,0.65055 -1.60313,0.65055 -0.90612,0 -1.57991,-0.65055 -0.65055,-0.65055 -0.65055,-1.57991 0,-0.92935 0.65055,-1.5799 0.67379,-0.67378 1.57991,-0.67378 z m 1.85872,18.98209 h -3.64773 v -12.4069 h 3.64773 z m -12.52306,-9.29356 q -1.04552,0 -1.6496,0.62732 -0.58084,0.62731 -0.58084,1.74254 v 6.9237 h -3.60126 v -6.87723 q 0,-2.41633 -2.02135,-2.41633 -1.06876,0 -1.6496,0.65055 -0.55762,0.65055 -0.55762,1.76578 v 6.87723 h -3.6245 v -12.4069 h 3.5548 v 1.62637 h 0.0465 q 0.48791,-0.88289 1.48698,-1.39403 0.99906,-0.51115 2.13752,-0.51115 2.57896,0 3.62449,1.97488 0.92935,-1.04552 1.88193,-1.5102 0.95259,-0.46468 2.23046,-0.46468 2.13752,0 3.25275,1.32434 1.11522,1.32433 1.11522,3.62448 v 7.73689 h -3.62449 v -6.9237 q 0,-2.36986 -2.02135,-2.36986 z m -18.88912,-9.68853 q 0.95259,0 1.60314,0.65055 0.67377,0.65054 0.67377,1.60313 0,0.92936 -0.67377,1.57991 -0.65055,0.65055 -1.60314,0.65055 -0.90612,0 -1.5799,-0.65055 -0.65055,-0.65055 -0.65055,-1.57991 0,-0.92935 0.65055,-1.5799 0.67377,-0.67378 1.5799,-0.67378 z m 1.85871,18.98209 h -3.64772 v -12.4069 h 3.64772 z m -5.66905,-12.45337 v 3.57802 q -0.41821,-0.0697 -0.85966,-0.0697 -1.69607,0 -2.53249,0.97583 -0.83642,0.97582 -0.83642,2.71836 v 5.25086 h -3.62449 v -12.4069 h 3.60126 v 1.90518 h 0.0232 q 0.4182,-0.88289 1.34757,-1.46374 0.95259,-0.58084 2.16075,-0.58084 0.46468,0 0.72024,0.0929 z m -10.22291,0.0929 q 0,2.90423 -1.83547,4.43767 -1.83548,1.51021 -4.80942,1.51021 h -2.85777 v 6.41255 h -3.76389 v -18.19214 h 6.76106 q 2.85777,0 4.67002,1.53344 1.83547,1.48697 1.83547,4.29827 z m -3.78712,0.0929 q 0,-1.18493 -0.83642,-1.76577 -0.83643,-0.60408 -2.20722,-0.60408 h -2.6719 v 4.71648 h 2.69513 q 1.32434,0 2.16076,-0.60408 0.85965,-0.60409 0.85965,-1.74255 z" /></g></g></svg>
