<?xml version="1.0" encoding="UTF-8" standalone="no"?>
<!-- Created with Inkscape (http://www.inkscape.org/) -->

<svg
   width="160.94603"
   height="126.95509"
   viewBox="0 0 42.583636 33.590201"
   version="1.1"
   id="svg5"
   xml:space="preserve"
   inkscape:version="1.2.1 (9c6d41e, 2022-07-14)"
   sodipodi:docname="proto-55.svg"
   xmlns:inkscape="http://www.inkscape.org/namespaces/inkscape"
   xmlns:sodipodi="http://sodipodi.sourceforge.net/DTD/sodipodi-0.dtd"
   xmlns:xlink="http://www.w3.org/1999/xlink"
   xmlns="http://www.w3.org/2000/svg"
   xmlns:svg="http://www.w3.org/2000/svg"><sodipodi:namedview
     id="namedview7"
     pagecolor="#ffffff"
     bordercolor="#000000"
     borderopacity="0.25"
     inkscape:showpageshadow="2"
     inkscape:pageopacity="0.0"
     inkscape:pagecheckerboard="0"
     inkscape:deskcolor="#d1d1d1"
     inkscape:document-units="px"
     showgrid="false"
     inkscape:zoom="1.3021688"
     inkscape:cx="-4.2237228"
     inkscape:cy="-10.36732"
     inkscape:window-width="1728"
     inkscape:window-height="1051"
     inkscape:window-x="0"
     inkscape:window-y="38"
     inkscape:window-maximized="1"
     inkscape:current-layer="layer1"
     showguides="true"><sodipodi:guide
       position="-471.96816,-331.74107"
       orientation="0,-1"
       id="guide17183"
       inkscape:locked="false" /></sodipodi:namedview><defs
     id="defs2"><linearGradient
       inkscape:collect="always"
       id="linearGradient46463"><stop
         style="stop-color:#dbeffb;stop-opacity:1;"
         offset="0"
         id="stop46459" /><stop
         style="stop-color:#becbef;stop-opacity:1;"
         offset="1"
         id="stop46461" /></linearGradient><linearGradient
       inkscape:collect="always"
       id="linearGradient46431"><stop
         style="stop-color:#edeff7;stop-opacity:1;"
         offset="0"
         id="stop46427" /><stop
         style="stop-color:#c8d0eb;stop-opacity:1;"
         offset="1"
         id="stop46429" /></linearGradient><linearGradient
       inkscape:collect="always"
       id="linearGradient46423"><stop
         style="stop-color:#dbeffb;stop-opacity:0.73611104;"
         offset="0"
         id="stop46419" /><stop
         style="stop-color:#becbef;stop-opacity:0.72453707;"
         offset="1"
         id="stop46421" /></linearGradient><linearGradient
       inkscape:collect="always"
       id="linearGradient37350"><stop
         style="stop-color:#fbfcff;stop-opacity:1"
         offset="0"
         id="stop37346" /><stop
         style="stop-color:#eef2fd;stop-opacity:1;"
         offset="1"
         id="stop37348" /></linearGradient><linearGradient
       inkscape:collect="always"
       id="linearGradient17407"><stop
         style="stop-color:#ffffff;stop-opacity:1;"
         offset="0"
         id="stop17403" /><stop
         style="stop-color:#000000;stop-opacity:1;"
         offset="1"
         id="stop17405" /></linearGradient><inkscape:path-effect
       effect="fillet_chamfer"
       id="path-effect17173"
       is_visible="true"
       lpeversion="1"
       nodesatellites_param="F,0,0,1,0,0,0,1 @ F,0,0,1,0,0,0,1 @ F,0,0,1,0,0,0,1 @ F,0,0,1,0,0,0,1"
       unit="px"
       method="auto"
       mode="F"
       radius="0"
       chamfer_steps="1"
       flexible="false"
       use_knot_distance="true"
       apply_no_radius="true"
       apply_with_radius="true"
       only_selected="false"
       hide_knots="false" /><inkscape:path-effect
       effect="fillet_chamfer"
       id="path-effect14078"
       is_visible="true"
       lpeversion="1"
       nodesatellites_param="F,0,1,1,0,1.887939,0,1 @ F,0,1,1,0,1.887939,0,1 @ F,0,1,1,0,1.887939,0,1 @ F,0,0,1,0,1.887939,0,1"
       unit="px"
       method="auto"
       mode="F"
       radius="0"
       chamfer_steps="1"
       flexible="false"
       use_knot_distance="true"
       apply_no_radius="true"
       apply_with_radius="true"
       only_selected="false"
       hide_knots="false" /><inkscape:perspective
       sodipodi:type="inkscape:persp3d"
       inkscape:vp_x="0 : -114.90979 : 1"
       inkscape:vp_y="0 : 999.99998 : 0"
       inkscape:vp_z="210 : -114.90979 : 1"
       inkscape:persp3d-origin="105 : -164.40979 : 1"
       id="perspective13938" /><mask
       maskUnits="userSpaceOnUse"
       id="mask17490"><rect
         style="fill:url(#linearGradient17494);fill-opacity:1;stroke:none;stroke-width:0.274442"
         id="rect17492"
         width="131.65099"
         height="17.928383"
         x="322.22021"
         y="109.08289"
         mask="none"
         transform="scale(1,-1)" /></mask><linearGradient
       inkscape:collect="always"
       xlink:href="#linearGradient17407"
       id="linearGradient17494"
       gradientUnits="userSpaceOnUse"
       x1="390.6926"
       y1="108.93027"
       x2="390.6926"
       y2="112.00736" /><filter
       inkscape:collect="always"
       style="color-interpolation-filters:sRGB"
       id="filter45689"
       x="-0.080193097"
       y="-0.1367134"
       width="1.1603862"
       height="1.2734268"><feGaussianBlur
         inkscape:collect="always"
         stdDeviation="0.89397436"
         id="feGaussianBlur45691" /></filter><filter
       inkscape:collect="always"
       style="color-interpolation-filters:sRGB"
       id="filter46453"
       x="-0.054374556"
       y="-0.092697887"
       width="1.1087491"
       height="1.1853958"><feGaussianBlur
         inkscape:collect="always"
         stdDeviation="0.60615513"
         id="feGaussianBlur46455" /></filter><linearGradient
       inkscape:collect="always"
       xlink:href="#linearGradient46463"
       id="linearGradient50460"
       gradientUnits="userSpaceOnUse"
       x1="902.18414"
       y1="-261.81067"
       x2="935.64948"
       y2="-261.81067"
       gradientTransform="translate(-14.803006,9.1683137)" /><linearGradient
       inkscape:collect="always"
       xlink:href="#linearGradient46423"
       id="linearGradient50462"
       gradientUnits="userSpaceOnUse"
       x1="902.18414"
       y1="-261.81067"
       x2="935.64948"
       y2="-261.81067" /><linearGradient
       inkscape:collect="always"
       xlink:href="#linearGradient46431"
       id="linearGradient50464"
       gradientUnits="userSpaceOnUse"
       gradientTransform="translate(609.27847,-383.96231)"
       x1="296.26089"
       y1="117.2763"
       x2="323.01401"
       y2="117.2763" /><linearGradient
       inkscape:collect="always"
       xlink:href="#linearGradient37350"
       id="linearGradient50466"
       gradientUnits="userSpaceOnUse"
       gradientTransform="translate(609.27847,-383.96231)"
       x1="296.26099"
       y1="114.30479"
       x2="323.01566"
       y2="114.30479" /></defs><g
     inkscape:label="Layer 1"
     inkscape:groupmode="layer"
     id="layer1"
     transform="translate(-809.32161,225.56536)"><g
       id="g53488"
       transform="translate(-61.181401,31.000171)"><path
         id="path50448"
         style="opacity:0.351852;fill:url(#linearGradient50460);fill-opacity:1;stroke:none;stroke-width:0.347789;filter:url(#filter45689)"
         d="m 902.47878,-260.0511 -11.19734,6.46499 a 1.0900033,1.0900033 0 0 0 3e-5,1.88794 l 11.19729,6.46457 a 3.2701029,3.2701029 0 0 0 3.27003,0 l 11.1973,-6.46457 a 1.0900017,1.0900017 0 0 0 3e-5,-1.88794 l -11.19736,-6.46499 a 3.2699072,3.2699072 0 0 0 -3.26998,0 z"
         transform="matrix(0.89973228,0,0,0.89973228,85.659872,-13.561351)" /><path
         id="path50450"
         style="mix-blend-mode:normal;fill:url(#linearGradient50462);fill-opacity:1;stroke:none;stroke-width:0.347789;filter:url(#filter46453)"
         d="m 917.28179,-269.21941 -11.19734,6.46499 a 1.0900033,1.0900033 0 0 0 3e-5,1.88794 l 11.19729,6.46457 a 3.2701029,3.2701029 0 0 0 3.27003,0 l 11.1973,-6.46457 a 1.0900017,1.0900017 0 0 0 3e-5,-1.88794 l -11.19736,-6.46499 a 3.2699072,3.2699072 0 0 0 -3.26998,0 z"
         transform="matrix(0.71930662,0,0,0.71930662,238.1373,-54.392438)" /><g
         id="g50456"
         transform="translate(-19.796561,20.938836)"><path
           id="path50452"
           style="fill:url(#linearGradient50464);fill-opacity:1;stroke:none;stroke-width:0.347789"
           d="m 918.91686,-274.53302 a 3.2699072,3.2699072 0 0 0 -1.63505,0.43821 l -7.57783,4.37545 h -4.1646 v 3.0334 h 0.007 a 1.0900033,1.0900033 0 0 0 0.53795,0.94413 l 11.19725,6.46472 a 3.2701029,3.2701029 0 0 0 3.27009,0 l 11.19725,-6.46472 a 1.0900017,1.0900017 0 0 0 0.54157,-1.00614 h 0.002 v -2.97139 h -4.16254 l -7.57783,-4.37545 a 3.2699072,3.2699072 0 0 0 -1.63504,-0.43821 z" /><path
           id="path50454"
           style="fill:url(#linearGradient50466);fill-opacity:1;stroke:none;stroke-width:0.347789"
           d="m 917.28179,-277.06626 -11.19734,6.46499 a 1.0900033,1.0900033 0 0 0 3e-5,1.88794 l 11.19729,6.46457 a 3.2701029,3.2701029 0 0 0 3.27003,0 l 11.1973,-6.46457 a 1.0900017,1.0900017 0 0 0 3e-5,-1.88794 l -11.19736,-6.46499 a 3.2699072,3.2699072 0 0 0 -3.26998,0 z" /></g></g><use
       x="0"
       y="0"
       xlink:href="#g53488"
       id="use53906"
       transform="translate(-14.650792,8.9060347)" /></g></svg>
