<?xml version="1.0" encoding="UTF-8" standalone="no"?>
<!-- Created with Inkscape (http://www.inkscape.org/) -->

<svg
   width="1119.5756"
   height="192.77473"
   viewBox="0 0 296.22103 51.004982"
   version="1.1"
   id="svg5"
   xml:space="preserve"
   inkscape:version="1.2.1 (9c6d41e, 2022-07-14)"
   sodipodi:docname="solid-another-logo.svg"
   xmlns:inkscape="http://www.inkscape.org/namespaces/inkscape"
   xmlns:sodipodi="http://sodipodi.sourceforge.net/DTD/sodipodi-0.dtd"
   xmlns:xlink="http://www.w3.org/1999/xlink"
   xmlns="http://www.w3.org/2000/svg"
   xmlns:svg="http://www.w3.org/2000/svg"><sodipodi:namedview
     id="namedview7"
     pagecolor="#ffffff"
     bordercolor="#000000"
     borderopacity="0.25"
     inkscape:showpageshadow="2"
     inkscape:pageopacity="0.0"
     inkscape:pagecheckerboard="0"
     inkscape:deskcolor="#d1d1d1"
     inkscape:document-units="px"
     showgrid="false"
     showguides="true"
     inkscape:zoom="0.26657688"
     inkscape:cx="223.20015"
     inkscape:cy="478.28604"
     inkscape:window-width="1728"
     inkscape:window-height="1051"
     inkscape:window-x="0"
     inkscape:window-y="38"
     inkscape:window-maximized="1"
     inkscape:current-layer="layer1" /><defs
     id="defs2"><linearGradient
       inkscape:collect="always"
       id="linearGradient18387"><stop
         style="stop-color:#490981;stop-opacity:1;"
         offset="0"
         id="stop18383" /><stop
         style="stop-color:#490981;stop-opacity:0.24609375;"
         offset="1"
         id="stop18385" /></linearGradient><linearGradient
       inkscape:collect="always"
       id="linearGradient6844"><stop
         style="stop-color:#6cc6bc;stop-opacity:1"
         offset="0"
         id="stop6840" /><stop
         style="stop-color:#3b24b1;stop-opacity:0;"
         offset="1"
         id="stop6842" /></linearGradient><linearGradient
       inkscape:collect="always"
       id="linearGradient1103"><stop
         style="stop-color:#6cc6bc;stop-opacity:1"
         offset="0"
         id="stop1099" /><stop
         style="stop-color:#321f96;stop-opacity:1"
         offset="1"
         id="stop1101" /></linearGradient><inkscape:path-effect
       effect="fillet_chamfer"
       id="path-effect513"
       is_visible="true"
       lpeversion="1"
       nodesatellites_param="F,0,1,1,0,16.775635,0,1 @ F,0,1,1,0,16.775635,0,1 @ F,0,1,1,0,16.775635,0,1 @ F,0,1,1,0,16.775635,0,1 @ F,0,1,1,0,16.775635,0,1 @ F,0,0,1,0,16.775635,0,1"
       unit="px"
       method="auto"
       mode="F"
       radius="0"
       chamfer_steps="1"
       flexible="false"
       use_knot_distance="true"
       apply_no_radius="true"
       apply_with_radius="true"
       only_selected="false"
       hide_knots="false" /><inkscape:path-effect
       effect="fillet_chamfer"
       id="path-effect414"
       is_visible="true"
       lpeversion="1"
       nodesatellites_param="F,0,0,1,0,0,0,1 @ F,0,0,1,0,0,0,1 @ F,0,0,1,0,0,0,1 @ F,0,0,1,0,0,0,1 @ F,0,0,1,0,0,0,1 @ F,0,0,1,0,0,0,1"
       unit="px"
       method="auto"
       mode="F"
       radius="0"
       chamfer_steps="1"
       flexible="false"
       use_knot_distance="true"
       apply_no_radius="true"
       apply_with_radius="true"
       only_selected="false"
       hide_knots="false" /><radialGradient
       inkscape:collect="always"
       xlink:href="#linearGradient1103"
       id="radialGradient5316"
       cx="-86.508469"
       cy="83.697502"
       fx="-86.508469"
       fy="83.697502"
       r="101.24011"
       gradientTransform="matrix(2.0476219,0,0,1.1237909,76.284289,-274.60651)"
       gradientUnits="userSpaceOnUse" /><linearGradient
       inkscape:collect="always"
       xlink:href="#linearGradient6844"
       id="linearGradient6838"
       x1="-86.712021"
       y1="49.703087"
       x2="-86.712021"
       y2="296.9783"
       gradientUnits="userSpaceOnUse"
       gradientTransform="translate(-14.528126,-252.35154)" /><filter
       inkscape:collect="always"
       style="color-interpolation-filters:sRGB"
       id="filter18379"
       x="-0.29529103"
       y="-0.17642591"
       width="1.5905821"
       height="1.3528518"><feGaussianBlur
         inkscape:collect="always"
         stdDeviation="7.8069177"
         id="feGaussianBlur18381" /></filter><linearGradient
       inkscape:collect="always"
       xlink:href="#linearGradient18387"
       id="linearGradient18389"
       x1="-178.84663"
       y1="197.39085"
       x2="-126.70565"
       y2="154.85391"
       gradientUnits="userSpaceOnUse" /><clipPath
       clipPathUnits="userSpaceOnUse"
       id="clipPath22192"><path
         id="path22194"
         style="opacity:1;fill:#341b94;fill-opacity:0.227891;stroke-width:0.402976"
         inkscape:transform-center-x="-3.9322852e-06"
         inkscape:transform-center-y="3.4374505e-06"
         d="m -184.05705,100.10379 a 23.890575,23.890575 0 0 0 -3.89457,12.98345 v 68.53269 a 23.890577,23.890577 0 0 0 11.94502,20.68974 l 59.35075,34.26634 a 23.890575,23.890575 0 0 0 8.10058,2.85188 23.890579,23.890579 0 0 0 3.84486,-12.99407 v -68.53227 a 23.890577,23.890577 0 0 0 -11.94544,-20.69016 l -59.35075,-34.26592 a 23.890577,23.890577 0 0 0 -8.05045,-2.84168 z" /></clipPath><style
       id="style811">
      .a {
        fill: #76b3e1;
      }

      .b, .d {
        isolation: isolate;
        opacity: 0.3;
      }

      .b {
        fill: url(#a);
      }

      .c {
        fill: #518ac8;
      }

      .d {
        fill: url(#b);
      }

      .e {
        fill: url(#c);
      }

      .f {
        fill: url(#d);
      }

      .g {
        fill: #58595b;
      }
    </style><linearGradient
       id="a-7"
       x1="11.67"
       y1="73.360001"
       x2="70.610001"
       y2="44.720001"
       gradientTransform="matrix(0.59620834,0,0,-0.59620834,-381.63864,-245.30594)"
       gradientUnits="userSpaceOnUse"><stop
         offset="0.1"
         stop-color="#76b3e1"
         id="stop813" /><stop
         offset="0.3"
         stop-color="#dcf2fd"
         id="stop815" /><stop
         offset="1"
         stop-color="#76b3e1"
         id="stop817" /></linearGradient><linearGradient
       id="b-0"
       x1="44"
       y1="59.330002"
       x2="33.68"
       y2="24.959999"
       gradientTransform="matrix(0.59620834,0,0,-0.59620834,-381.63864,-245.30594)"
       gradientUnits="userSpaceOnUse"><stop
         offset="0"
         stop-color="#76b3e1"
         id="stop820" /><stop
         offset="0.5"
         stop-color="#4377bb"
         id="stop822" /><stop
         offset="1"
         stop-color="#1f3b77"
         id="stop824" /></linearGradient><linearGradient
       id="c-3"
       x1="7.3400002"
       y1="44.34"
       x2="66.940002"
       y2="3.8199999"
       gradientTransform="matrix(0.59620834,0,0,-0.59620834,-381.63864,-245.30594)"
       gradientUnits="userSpaceOnUse"><stop
         offset="0"
         stop-color="#315aa9"
         id="stop827" /><stop
         offset="0.5"
         stop-color="#518ac8"
         id="stop829" /><stop
         offset="1"
         stop-color="#315aa9"
         id="stop831" /></linearGradient><linearGradient
       id="d-9"
       x1="34.25"
       y1="39.490002"
       x2="10.2"
       y2="-48.700001"
       gradientTransform="matrix(0.59620834,0,0,-0.59620834,-381.63864,-245.30594)"
       gradientUnits="userSpaceOnUse"><stop
         offset="0"
         stop-color="#4377bb"
         id="stop834" /><stop
         offset="0.5"
         stop-color="#1a336b"
         id="stop836" /><stop
         offset="1"
         stop-color="#1a336b"
         id="stop838" /></linearGradient></defs><g
     inkscape:label="Layer 1"
     inkscape:groupmode="layer"
     id="layer1"
     transform="translate(491.74133,240.83488)"><g
       id="g23731"><g
         id="g3884"
         transform="translate(-109.89395,52.660781)"><path
           class="g"
           d="m -316.22843,-262.23817 a 7.1545216,7.1545216 0 0 0 4.82931,2.02711 c 2.02711,0 3.6965,-1.19242 3.6965,-3.21953 0,-4.65044 -9.24126,-3.51764 -9.24126,-9.24126 0,-2.68294 2.38484,-4.94854 5.78324,-4.94854 a 7.1545216,7.1545216 0 0 1 4.94854,1.78863 l -0.90027,1.55015 a 6.1886611,6.1886611 0 0 0 -4.05423,-1.60977 c -2.38484,0 -3.87537,1.55014 -3.93499,3.15991 0,4.41196 9.24126,3.15992 9.24126,9.24126 0,2.74257 -2.14636,5.00816 -5.60438,5.00816 a 7.9653673,7.9653673 0 0 1 -5.84286,-2.38484 z m 29.27392,-15.26298 a 9.3783853,9.3783853 0 0 1 9.42012,9.47974 9.5393621,9.5393621 0 0 1 -9.42012,9.65861 h -0.0596 a 9.5393621,9.5393621 0 0 1 -9.42012,-9.65861 v -0.0596 a 9.3783853,9.3783853 0 0 1 9.47974,-9.42012 z m -0.0596,17.46896 a 7.7507317,7.7507317 0 0 0 7.57187,-7.92363 v -0.0656 c 0,-4.41196 -3.33878,-7.81036 -7.51225,-7.81036 a 7.5837929,7.5837929 0 0 0 -7.57187,7.75074 c 0,4.53119 3.33878,7.98921 7.51225,8.04883 z m 20.21152,-17.11123 h 1.78863 l -0.0596,16.87274 h 8.58543 v 1.60977 h -10.43368 z m 20.21153,0.0596 h 1.78863 l -0.0596,18.54213 h -1.78863 z m 13.83207,0 h 5.9621 c 5.54476,0 9.30088,3.3984 9.30088,9.30088 0,5.90248 -3.75612,9.24125 -9.30088,9.24125 h -5.9621 z m 5.72362,16.93236 c 4.5312,0 7.57187,-2.68294 7.63149,-7.63148 0.0596,-4.94855 -3.04067,-7.63149 -7.57187,-7.63149 h -3.99461 l -0.0596,15.26297 z"
           id="path857"
           style="stroke-width:0.59621" /><path
           id="path3640"
           style="fill:#58595b;fill-opacity:1"
           d="m -85.626335,-262.38219 q 0,1.81225 -1.34757,2.92748 -1.32433,1.09199 -3.60125,1.09199 -3.92653,0 -5.4135,-2.85777 l 2.6719,-1.57991 q 0.76672,1.51021 2.78807,1.51021 0.67378,0 1.09199,-0.25558 0.41821,-0.2788 0.41821,-0.65054 0,-0.39498 -0.44144,-0.67379 -0.41821,-0.2788 -1.53344,-0.53438 -4.41444,-0.97582 -4.41444,-4.01946 0,-1.71931 1.39403,-2.8113 1.41727,-1.11523 3.36892,-1.11523 1.67284,0 2.90423,0.67378 1.25463,0.67379 1.88195,1.83548 l -2.62543,1.55667 q -0.69702,-1.18493 -2.25369,-1.18493 -0.55761,0 -0.92936,0.27881 -0.37174,0.25557 -0.37174,0.62731 0,0.78996 1.62638,1.13847 2.39309,0.48791 3.57802,1.48696 1.20816,0.97583 1.20816,2.55573 z m -11.96544,-1.46373 h -9.014745 q 0.16264,1.11523 1.02229,1.78901 0.85964,0.65055 2.04458,0.65055 0.83642,0 1.57991,-0.39498 0.76672,-0.41821 1.18493,-1.09199 l 2.625425,1.71931 q -1.55667,2.8113 -5.343795,2.8113 -2.85777,0 -4.85588,-1.81225 -1.95165,-1.85871 -1.95165,-4.69324 0,-2.64867 1.92841,-4.57708 1.92842,-1.90518 4.64678,-1.90518 2.7416,0 4.460905,1.71931 1.71931,1.71931 1.71931,4.48414 0,0.74348 -0.0465,1.3011 z m -8.921815,-2.39309 h 5.34379 q -0.0697,-0.88289 -0.78995,-1.51021 -0.69702,-0.65055 -1.85871,-0.65055 -1.13847,0 -1.85872,0.72025 -0.72025,0.69702 -0.83641,1.44051 z m -18.30823,-4.80942 h 3.83359 l 3.06687,8.27127 3.06688,-8.27127 h 3.83359 l -5.08822,12.4069 h -3.69419 z m -3.8568,-6.57519 q 0.95258,0 1.60313,0.65055 0.67379,0.65054 0.67379,1.60313 0,0.92936 -0.67379,1.57991 -0.65055,0.65055 -1.60313,0.65055 -0.90612,0 -1.57991,-0.65055 -0.65055,-0.65055 -0.65055,-1.57991 0,-0.92935 0.65055,-1.5799 0.67379,-0.67378 1.57991,-0.67378 z m 1.85872,18.98209 h -3.64773 v -12.4069 h 3.64773 z m -6.43577,-3.06687 v 2.99717 q -0.76671,0.23234 -1.69608,0.23234 -2.39308,0 -3.67095,-1.2314 -1.25464,-1.23139 -1.25464,-3.43861 v -4.76295 h -2.23044 v -3.13658 h 2.27691 v -3.88006 h 3.57803 v 3.88006 h 3.06688 v 3.13658 h -3.06688 v 4.3215 q 0,1.04553 0.53438,1.5102 0.53438,0.46468 1.62637,0.46468 0.48792,0 0.83642,-0.0929 z m -12.87155,-15.91522 q 0.95258,0 1.60313,0.65055 0.67379,0.65054 0.67379,1.60313 0,0.92936 -0.67379,1.57991 -0.65055,0.65055 -1.60313,0.65055 -0.90612,0 -1.57991,-0.65055 -0.65055,-0.65055 -0.65055,-1.57991 0,-0.92935 0.65055,-1.5799 0.67379,-0.67378 1.57991,-0.67378 z m 1.85872,18.98209 h -3.64773 v -12.4069 h 3.64773 z m -12.52306,-9.29356 q -1.04552,0 -1.6496,0.62732 -0.58084,0.62731 -0.58084,1.74254 v 6.9237 h -3.60126 v -6.87723 q 0,-2.41633 -2.02135,-2.41633 -1.06876,0 -1.6496,0.65055 -0.55762,0.65055 -0.55762,1.76578 v 6.87723 h -3.6245 v -12.4069 h 3.5548 v 1.62637 h 0.0465 q 0.48791,-0.88289 1.48698,-1.39403 0.99906,-0.51115 2.13752,-0.51115 2.57896,0 3.62449,1.97488 0.92935,-1.04552 1.88193,-1.5102 0.95259,-0.46468 2.23046,-0.46468 2.13752,0 3.25275,1.32434 1.11522,1.32433 1.11522,3.62448 v 7.73689 h -3.62449 v -6.9237 q 0,-2.36986 -2.02135,-2.36986 z m -18.88912,-9.68853 q 0.95259,0 1.60314,0.65055 0.67377,0.65054 0.67377,1.60313 0,0.92936 -0.67377,1.57991 -0.65055,0.65055 -1.60314,0.65055 -0.90612,0 -1.5799,-0.65055 -0.65055,-0.65055 -0.65055,-1.57991 0,-0.92935 0.65055,-1.5799 0.67377,-0.67378 1.5799,-0.67378 z m 1.85871,18.98209 h -3.64772 v -12.4069 h 3.64772 z m -5.66905,-12.45337 v 3.57802 q -0.41821,-0.0697 -0.85966,-0.0697 -1.69607,0 -2.53249,0.97583 -0.83642,0.97582 -0.83642,2.71836 v 5.25086 h -3.62449 v -12.4069 h 3.60126 v 1.90518 h 0.0232 q 0.4182,-0.88289 1.34757,-1.46374 0.95259,-0.58084 2.16075,-0.58084 0.46468,0 0.72024,0.0929 z m -10.22291,0.0929 q 0,2.90423 -1.83547,4.43767 -1.83548,1.51021 -4.80942,1.51021 h -2.85777 v 6.41255 h -3.76389 v -18.19214 h 6.76106 q 2.85777,0 4.67002,1.53344 1.83547,1.48697 1.83547,4.29827 z m -3.78712,0.0929 q 0,-1.18493 -0.83642,-1.76577 -0.83643,-0.60408 -2.20722,-0.60408 h -2.6719 v 4.71648 h 2.69513 q 1.32434,0 2.16076,-0.60408 0.85965,-0.60409 0.85965,-1.74255 z" /></g><g
         id="g23711"
         transform="matrix(0.22687638,0,0,0.22687638,-445.80335,-189.8299)"><path
           id="path6836"
           style="fill:url(#radialGradient5316);fill-opacity:1;stroke-width:0.490108"
           inkscape:transform-center-x="-3.9322852e-06"
           d="m -14.528125,-45.56817 -72.18385,41.6753702 a 29.056249,29.056249 0 0 1 -29.056255,0 L -187.95209,-45.56817 a 29.056253,29.056253 0 0 1 -14.52813,-25.16346 v -83.35073 a 29.056251,29.056251 0 0 1 14.52813,-25.16345 l 72.18386,-41.67537 a 29.056252,29.056252 0 0 1 29.056256,0 l 72.183848,41.67537 A 29.056253,29.056253 0 0 1 0,-154.08236 v 83.35073 a 29.056255,29.056255 0 0 1 -14.528125,25.16346 z"
           inkscape:transform-center-y="3.4374505e-06" /><path
           id="path515"
           style="opacity:1;fill:#341b94;fill-opacity:0.773984;stroke-width:0.490108"
           inkscape:transform-center-x="-3.9322852e-06"
           inkscape:transform-center-y="3.4374505e-06"
           d="m -197.7433,-169.87337 a 29.056251,29.056251 0 0 0 -4.73666,15.79077 v 83.35098 a 29.056253,29.056253 0 0 0 14.52779,25.16332 l 72.18371,41.6754902 a 29.056249,29.056249 0 0 0 9.85211,3.46852 29.056255,29.056255 0 0 0 4.6762,-15.8036802 v -83.35047 a 29.056253,29.056253 0 0 0 -14.52831,-25.16384 l -72.18371,-41.67497 a 29.056252,29.056252 0 0 0 -9.79113,-3.45612 z" /><path
           id="path358"
           style="fill:url(#linearGradient6838);fill-opacity:1;stroke-width:0.490108"
           inkscape:transform-center-x="-3.9322852e-06"
           d="m -14.528125,-45.56817 -72.18385,41.6753702 a 29.056249,29.056249 0 0 1 -29.056255,0 L -187.95209,-45.56817 a 29.056253,29.056253 0 0 1 -14.52813,-25.16346 v -83.35073 a 29.056251,29.056251 0 0 1 14.52813,-25.16345 l 72.18386,-41.67537 a 29.056252,29.056252 0 0 1 29.056256,0 l 72.183848,41.67537 A 29.056253,29.056253 0 0 1 0,-154.08236 v 83.35073 a 29.056255,29.056255 0 0 1 -14.528125,25.16346 z"
           inkscape:transform-center-y="3.4374505e-06" /><path
           id="path16997"
           style="opacity:1;mix-blend-mode:normal;fill:url(#linearGradient18389);fill-opacity:1;stroke-width:0.307171;filter:url(#filter18379)"
           inkscape:transform-center-x="-2.9258847e-06"
           inkscape:transform-center-y="3.6194002e-06"
           d="m -184.98316,119.48356 a 18.210793,18.210793 0 0 0 -2.96867,9.89674 v 52.23962 a 18.210795,18.210795 0 0 0 9.10519,15.77093 l 45.24061,26.11981 a 18.210792,18.210792 0 0 0 6.17474,2.17387 18.210796,18.210796 0 0 0 2.93077,-9.90484 v -52.2393 a 18.210795,18.210795 0 0 0 -9.10551,-15.77126 l -45.24061,-26.11948 a 18.210794,18.210794 0 0 0 -6.13652,-2.16609 z"
           transform="matrix(1.2162223,0,0,1.2162223,26.110991,-291.62183)"
           clip-path="url(#clipPath22192)" /></g></g></g></svg>
