<svg viewBox="0 0 295.69 41.861" xml:space="preserve" xmlns="http://www.w3.org/2000/svg"><defs><linearGradient id="a" x1="11.67" y1="73.36" x2="70.61" y2="44.72" gradientTransform="matrix(.5962 0 0 -.5962 -381.639 -245.306)" gradientUnits="userSpaceOnUse"><stop offset=".1" stop-color="#76b3e1"/><stop offset=".3" stop-color="#dcf2fd"/><stop offset="1" stop-color="#76b3e1"/></linearGradient><linearGradient id="b" x1="44" y1="59.33" x2="33.68" y2="24.96" gradientTransform="matrix(.5962 0 0 -.5962 -381.639 -245.306)" gradientUnits="userSpaceOnUse"><stop offset="0" stop-color="#76b3e1"/><stop offset=".5" stop-color="#4377bb"/><stop offset="1" stop-color="#1f3b77"/></linearGradient><linearGradient id="c" x1="7.34" y1="44.34" x2="66.94" y2="3.82" gradientTransform="matrix(.5962 0 0 -.5962 -381.639 -245.306)" gradientUnits="userSpaceOnUse"><stop offset="0" stop-color="#315aa9"/><stop offset=".5" stop-color="#518ac8"/><stop offset="1" stop-color="#315aa9"/></linearGradient><linearGradient id="d" x1="34.25" y1="39.49" x2="10.2" y2="-48.7" gradientTransform="matrix(.5962 0 0 -.5962 -381.639 -245.306)" gradientUnits="userSpaceOnUse"><stop offset="0" stop-color="#4377bb"/><stop offset=".5" stop-color="#1a336b"/><stop offset="1" stop-color="#1a336b"/></linearGradient></defs><path d="M44.877 9.006S30-2.226 18.459.397l-1.014.28a7.363 7.363 0 0 0-3.923 2.755 6.666 6.666 0 0 0-.423.703L8.836 11.38l7.363 1.437a13.117 13.117 0 0 0 10.5 2.063l13.116 2.564z" fill="#76b3e1"/><path d="M-336.44-279.916s-14.875-11.232-26.418-8.61l-1.014.281a7.363 7.363 0 0 0-3.923 2.755 6.666 6.666 0 0 0-.423.703l-4.263 7.244 7.363 1.437a13.117 13.117 0 0 0 10.5 2.063l13.116 2.564z" style="isolation:isolate" fill="url(#a)" opacity=".3" transform="translate(381.317 288.922)"/><path d="m13.39 8.863-1.019.286c-4.71 1.52-6.32 5.927-3.613 9.79a12.592 12.592 0 0 0 13.439 4.233l17.6-5.73S24.95 6.24 13.39 8.864z" fill="#518ac8"/><path d="m-367.926-280.059-1.02.286c-4.71 1.52-6.32 5.927-3.612 9.79a12.592 12.592 0 0 0 13.438 4.233l17.6-5.73s-14.845-11.202-26.406-8.579z" style="isolation:isolate" fill="url(#b)" opacity=".3" transform="translate(381.317 288.922)"/><path d="M-344.74-267.354a12.586 12.586 0 0 0-13.462-4.263l-17.582 5.7-5.533 9.85 31.498 5.365 5.646-10.046c1.127-1.925 1.014-4.352-.566-6.606z" fill="url(#c)" transform="translate(381.317 288.922)"/><path d="M-350.272-257.504a12.604 12.604 0 0 0-13.433-4.263l-17.612 5.7s14.906 11.232 26.418 8.609l1.014-.28c4.716-1.497 6.326-5.903 3.613-9.766z" fill="url(#d)" transform="translate(381.317 288.922)"/><g fill="#fff"><path d="M65.088 26.684a7.155 7.155 0 0 0 4.83 2.027c2.027 0 3.696-1.192 3.696-3.22 0-4.65-9.241-3.517-9.241-9.24 0-2.684 2.385-4.95 5.783-4.95a7.155 7.155 0 0 1 4.949 1.79l-.9 1.55a6.189 6.189 0 0 0-4.055-1.61c-2.385 0-3.875 1.55-3.935 3.16 0 4.412 9.241 3.16 9.241 9.241 0 2.743-2.146 5.008-5.604 5.008a7.965 7.965 0 0 1-5.843-2.385zm29.274-15.263a9.378 9.378 0 0 1 9.42 9.48 9.54 9.54 0 0 1-9.42 9.658h-.06a9.54 9.54 0 0 1-9.42-9.658v-.06a9.378 9.378 0 0 1 9.48-9.42zm-.06 17.469a7.75 7.75 0 0 0 7.572-7.924v-.065c0-4.412-3.338-7.81-7.512-7.81a7.584 7.584 0 0 0-7.572 7.75c0 4.531 3.34 7.99 7.513 8.049zm20.212-17.111h1.789l-.06 16.873h8.586v1.61h-10.434zm20.212.06h1.788l-.06 18.541h-1.788zm13.832 0h5.962c5.545 0 9.3 3.398 9.3 9.3 0 5.903-3.755 9.241-9.3 9.241h-5.962zm5.723 16.932c4.532 0 7.572-2.683 7.632-7.632.06-4.948-3.04-7.631-7.572-7.631h-3.995l-.06 15.263z"/><path d="M295.69 26.54q0 1.812-1.347 2.927-1.325 1.092-3.601 1.092-3.927 0-5.414-2.857l2.672-1.58q.767 1.51 2.788 1.51.674 0 1.092-.256.418-.278.418-.65 0-.395-.441-.674-.418-.279-1.534-.534-4.414-.976-4.414-4.02 0-1.72 1.394-2.811 1.417-1.115 3.369-1.115 1.673 0 2.904.674 1.255.673 1.882 1.835l-2.625 1.557q-.697-1.185-2.254-1.185-.558 0-.93.279-.371.255-.371.627 0 .79 1.626 1.138 2.393.488 3.578 1.487 1.208.976 1.208 2.556zm-11.965-1.464h-9.015q.163 1.116 1.022 1.79.86.65 2.045.65.836 0 1.58-.395.767-.418 1.185-1.092l2.625 1.72q-1.556 2.81-5.343 2.81-2.858 0-4.856-1.812-1.952-1.858-1.952-4.693 0-2.649 1.928-4.577 1.929-1.905 4.647-1.905 2.742 0 4.461 1.719 1.72 1.72 1.72 4.484 0 .744-.047 1.301zm-8.922-2.393h5.344q-.07-.883-.79-1.51-.697-.65-1.859-.65-1.138 0-1.858.72-.72.697-.837 1.44zm-18.308-4.81h3.833l3.067 8.272 3.067-8.271h3.834l-5.088 12.407h-3.695zm-3.857-6.574q.953 0 1.603.65.674.65.674 1.603 0 .93-.674 1.58-.65.65-1.603.65-.906 0-1.58-.65-.65-.65-.65-1.58t.65-1.58q.674-.673 1.58-.673zm1.859 18.982h-3.648V17.874h3.648zm-6.436-3.067v2.997q-.767.232-1.696.232-2.393 0-3.671-1.231-1.255-1.231-1.255-3.439V21.01h-2.23v-3.136h2.277v-3.88h3.578v3.88h3.067v3.136h-3.067v4.322q0 1.045.534 1.51.535.465 1.627.465.488 0 .836-.093zm-12.872-15.915q.953 0 1.604.65.673.65.673 1.603 0 .93-.673 1.58-.651.65-1.604.65-.906 0-1.58-.65-.65-.65-.65-1.58t.65-1.58q.674-.673 1.58-.673zm1.86 18.982H233.4V17.874h3.648zm-12.524-9.294q-1.045 0-1.65.627-.58.628-.58 1.743v6.924h-3.602v-6.878q0-2.416-2.02-2.416-1.07 0-1.65.65-.558.651-.558 1.766v6.878h-3.625V17.874h3.555V19.5h.047q.488-.883 1.487-1.394.999-.511 2.137-.511 2.58 0 3.625 1.975.929-1.046 1.882-1.51.952-.465 2.23-.465 2.138 0 3.253 1.324 1.115 1.325 1.115 3.625v7.737h-3.624v-6.924q0-2.37-2.022-2.37zM205.636 11.3q.953 0 1.603.65.674.65.674 1.603 0 .93-.674 1.58-.65.65-1.603.65-.906 0-1.58-.65-.65-.65-.65-1.58t.65-1.58q.674-.673 1.58-.673zm1.859 18.982h-3.648V17.874h3.648zm-5.67-12.454v3.578q-.418-.07-.859-.07-1.696 0-2.532.976-.837.976-.837 2.719v5.25h-3.624V17.875h3.6v1.905h.024q.418-.883 1.348-1.464.952-.58 2.16-.58.465 0 .72.092zm-10.222.093q0 2.904-1.836 4.438-1.835 1.51-4.81 1.51H182.1v6.413h-3.764V12.088h6.761q2.858 0 4.67 1.534 1.836 1.487 1.836 4.298zm-3.787.093q0-1.185-.837-1.766-.836-.604-2.207-.604H182.1v4.717h2.695q1.325 0 2.161-.604.86-.604.86-1.743z"/></g></svg>